<svg id="Graphic_elements" data-name="Graphic elements" xmlns="http://www.w3.org/2000/svg" viewBox="0 0 1899.07 1106.17"><defs><style>.cls-1,.cls-2,.cls-3,.cls-4,.cls-5{fill:none;stroke:#d7be8a;stroke-linejoin:round;}.cls-1,.cls-4{stroke-width:1.67px;}.cls-2,.cls-3,.cls-4,.cls-5{stroke-linecap:round;}.cls-2{stroke-width:1.66px;}.cls-3{stroke-width:1.66px;}.cls-5{stroke-width:1.7px;}</style></defs><line class="cls-1" x1="1512.93" y1="550.45" x2="1530.41" y2="550.36"/><line class="cls-1" x1="1512.99" y1="545.63" x2="1530.46" y2="545.4"/><line class="cls-1" x1="1512.68" y1="541.56" x2="1530.15" y2="541.21"/><line class="cls-1" x1="1512.74" y1="536.75" x2="1530.21" y2="536.25"/><line class="cls-1" x1="1512.43" y1="532.68" x2="1529.9" y2="532.06"/><line class="cls-1" x1="1512.5" y1="527.86" x2="1529.95" y2="527.09"/><line class="cls-1" x1="1512.02" y1="523.81" x2="1529.47" y2="522.91"/><line class="cls-1" x1="1511.81" y1="519" x2="1529.25" y2="517.96"/><line class="cls-1" x1="1511.28" y1="514.96" x2="1528.71" y2="513.79"/><line class="cls-1" x1="1511.07" y1="510.14" x2="1528.49" y2="508.83"/><line class="cls-1" x1="1510.54" y1="506.1" x2="1527.94" y2="504.66"/><line class="cls-1" x1="1510.33" y1="501.28" x2="1527.72" y2="499.69"/><line class="cls-1" x1="1509.6" y1="497.26" x2="1526.98" y2="495.55"/><line class="cls-1" x1="1509.13" y1="492.47" x2="1526.49" y2="490.6"/><line class="cls-1" x1="1508.37" y1="488.45" x2="1525.71" y2="486.46"/><line class="cls-1" x1="1507.9" y1="483.65" x2="1525.22" y2="481.52"/><line class="cls-1" x1="1507.14" y1="479.64" x2="1524.44" y2="477.38"/><line class="cls-1" x1="1506.66" y1="474.84" x2="1523.93" y2="472.43"/><line class="cls-1" x1="1505.67" y1="470.86" x2="1522.93" y2="468.33"/><line class="cls-1" x1="1504.93" y1="466.1" x2="1522.16" y2="463.42"/><line class="cls-1" x1="1503.95" y1="462.12" x2="1521.16" y2="459.32"/><line class="cls-1" x1="1503.22" y1="457.35" x2="1520.39" y2="454.4"/><line class="cls-1" x1="1502.24" y1="453.38" x2="1519.39" y2="450.3"/><line class="cls-1" x1="1501.44" y1="448.62" x2="1518.55" y2="445.4"/><line class="cls-1" x1="1500.24" y1="444.69" x2="1517.32" y2="441.34"/><line class="cls-1" x1="1499.24" y1="439.96" x2="1516.29" y2="436.47"/><line class="cls-1" x1="1498.04" y1="436.04" x2="1515.06" y2="432.42"/><line class="cls-1" x1="1497.04" y1="431.31" x2="1514.02" y2="427.54"/><line class="cls-1" x1="1495.84" y1="427.38" x2="1512.79" y2="423.5"/><line class="cls-1" x1="1494.72" y1="422.68" x2="1511.63" y2="418.65"/><line class="cls-1" x1="1493.31" y1="418.81" x2="1510.18" y2="414.66"/><line class="cls-1" x1="1492.05" y1="414.13" x2="1508.87" y2="409.84"/><line class="cls-1" x1="1490.64" y1="410.27" x2="1507.42" y2="405.85"/><line class="cls-1" x1="1489.38" y1="405.59" x2="1506.12" y2="401.02"/><line class="cls-1" x1="1487.97" y1="401.72" x2="1504.67" y2="397.04"/><line class="cls-1" x1="1486.52" y1="397.1" x2="1503.17" y2="392.27"/><line class="cls-1" x1="1484.9" y1="393.3" x2="1501.5" y2="388.35"/><line class="cls-1" x1="1483.39" y1="388.68" x2="1499.94" y2="383.59"/><line class="cls-1" x1="1481.77" y1="384.89" x2="1498.28" y2="379.67"/><line class="cls-1" x1="1480.25" y1="380.27" x2="1496.71" y2="374.91"/><line class="cls-1" x1="1478.62" y1="376.48" x2="1495.03" y2="371.01"/><line class="cls-1" x1="1476.86" y1="371.94" x2="1493.21" y2="366.33"/><line class="cls-1" x1="1475.03" y1="368.22" x2="1491.33" y2="362.49"/><line class="cls-1" x1="1473.27" y1="363.68" x2="1489.51" y2="357.81"/><line class="cls-1" x1="1471.45" y1="359.96" x2="1487.64" y2="353.97"/><line class="cls-1" x1="1469.69" y1="355.41" x2="1485.82" y2="349.28"/><line class="cls-1" x1="1467.77" y1="351.73" x2="1483.84" y2="345.49"/><line class="cls-1" x1="1465.77" y1="347.28" x2="1481.78" y2="340.89"/><line class="cls-1" x1="1463.75" y1="343.64" x2="1479.7" y2="337.14"/><line class="cls-1" x1="1461.74" y1="339.18" x2="1477.63" y2="332.55"/><line class="cls-1" x1="1459.72" y1="335.55" x2="1475.55" y2="328.8"/><line class="cls-1" x1="1457.72" y1="331.09" x2="1473.47" y2="324.2"/><line class="cls-1" x1="1455.52" y1="327.53" x2="1471.21" y2="320.53"/><line class="cls-1" x1="1453.28" y1="323.17" x2="1468.9" y2="316.04"/><line class="cls-1" x1="1451.07" y1="319.63" x2="1466.62" y2="312.38"/><line class="cls-1" x1="1448.83" y1="315.27" x2="1464.31" y2="307.89"/><line class="cls-1" x1="1446.62" y1="311.73" x2="1462.03" y2="304.24"/><line class="cls-1" x1="1444.31" y1="307.39" x2="1459.65" y2="299.77"/><line class="cls-1" x1="1441.91" y1="303.95" x2="1457.18" y2="296.22"/><line class="cls-1" x1="1439.44" y1="299.69" x2="1454.63" y2="291.83"/><line class="cls-1" x1="1437.04" y1="296.25" x2="1452.16" y2="288.28"/><line class="cls-1" x1="1434.57" y1="291.99" x2="1449.6" y2="283.89"/><line class="cls-1" x1="1432.17" y1="288.55" x2="1447.13" y2="280.34"/><line class="cls-1" x1="1429.55" y1="284.37" x2="1444.43" y2="276.03"/><line class="cls-1" x1="1426.97" y1="281.03" x2="1441.77" y2="272.59"/><line class="cls-1" x1="1424.28" y1="276.89" x2="1438.99" y2="268.32"/><line class="cls-1" x1="1421.69" y1="273.56" x2="1436.34" y2="264.88"/><line class="cls-1" x1="1419" y1="269.41" x2="1433.56" y2="260.61"/><line class="cls-1" x1="1416.41" y1="266.09" x2="1430.89" y2="257.18"/><line class="cls-1" x1="1413.5" y1="262.07" x2="1427.89" y2="253.04"/><line class="cls-1" x1="1410.75" y1="258.85" x2="1425.05" y2="249.72"/><line class="cls-1" x1="1407.84" y1="254.83" x2="1422.05" y2="245.58"/><line class="cls-1" x1="1405.08" y1="251.61" x2="1419.21" y2="242.26"/><line class="cls-1" x1="1402.18" y1="247.58" x2="1416.21" y2="238.11"/><line class="cls-1" x1="1399.33" y1="244.44" x2="1413.28" y2="234.87"/><line class="cls-1" x1="1396.21" y1="240.55" x2="1410.06" y2="230.86"/><line class="cls-1" x1="1393.29" y1="237.46" x2="1407.05" y2="227.67"/><line class="cls-1" x1="1390.17" y1="233.56" x2="1403.84" y2="223.66"/><line class="cls-1" x1="1387.25" y1="230.47" x2="1400.83" y2="220.47"/><line class="cls-1" x1="1384.13" y1="226.58" x2="1397.6" y2="216.46"/><line class="cls-1" x1="1381.04" y1="223.62" x2="1394.43" y2="213.4"/><line class="cls-1" x1="1377.72" y1="219.87" x2="1391.01" y2="209.54"/><line class="cls-1" x1="1374.64" y1="216.91" x2="1387.84" y2="206.48"/><line class="cls-1" x1="1371.33" y1="213.15" x2="1384.41" y2="202.62"/><line class="cls-1" x1="1368.25" y1="210.19" x2="1381.24" y2="199.57"/><line class="cls-1" x1="1364.84" y1="206.51" x2="1377.72" y2="195.77"/><line class="cls-1" x1="1361.61" y1="203.68" x2="1374.4" y2="192.85"/><line class="cls-1" x1="1358.1" y1="200.08" x2="1370.77" y2="189.14"/><line class="cls-1" x1="1354.86" y1="197.25" x2="1367.45" y2="186.23"/><line class="cls-1" x1="1351.35" y1="193.65" x2="1363.82" y2="182.51"/><line class="cls-1" x1="1348.12" y1="190.82" x2="1360.5" y2="179.6"/><line class="cls-1" x1="1344.45" y1="187.36" x2="1356.71" y2="176.03"/><line class="cls-1" x1="1341.07" y1="184.68" x2="1353.23" y2="173.26"/><line class="cls-1" x1="1337.38" y1="181.23" x2="1349.42" y2="169.71"/><line class="cls-1" x1="1334" y1="178.55" x2="1345.94" y2="166.95"/><line class="cls-1" x1="1330.3" y1="175.1" x2="1342.12" y2="163.39"/><line class="cls-1" x1="1326.88" y1="172.47" x2="1338.6" y2="160.68"/><line class="cls-1" x1="1323.01" y1="169.19" x2="1334.6" y2="157.3"/><line class="cls-1" x1="1319.49" y1="166.66" x2="1330.99" y2="154.69"/><line class="cls-1" x1="1315.62" y1="163.37" x2="1326.99" y2="151.3"/><line class="cls-1" x1="1312.11" y1="160.84" x2="1323.37" y2="148.69"/><line class="cls-1" x1="1308.23" y1="157.55" x2="1319.37" y2="145.31"/><line class="cls-1" x1="1304.61" y1="155.15" x2="1315.64" y2="142.83"/><line class="cls-1" x1="1300.57" y1="152.04" x2="1311.47" y2="139.63"/><line class="cls-1" x1="1296.92" y1="149.67" x2="1307.72" y2="137.17"/><line class="cls-1" x1="1292.88" y1="146.55" x2="1303.55" y2="133.97"/><line class="cls-1" x1="1289.24" y1="144.18" x2="1299.8" y2="131.52"/><line class="cls-1" x1="1285.15" y1="141.11" x2="1295.58" y2="128.36"/><line class="cls-1" x1="1281.39" y1="138.9" x2="1291.71" y2="126.07"/><line class="cls-1" x1="1277.19" y1="135.97" x2="1287.37" y2="123.06"/><line class="cls-1" x1="1273.43" y1="133.75" x2="1283.5" y2="120.77"/><line class="cls-1" x1="1269.22" y1="130.82" x2="1279.16" y2="117.75"/><line class="cls-1" x1="1265.47" y1="128.6" x2="1275.29" y2="115.46"/><line class="cls-1" x1="1261.16" y1="125.8" x2="1270.85" y2="112.58"/><line class="cls-1" x1="1257.28" y1="123.75" x2="1266.86" y2="110.46"/><line class="cls-1" x1="1252.93" y1="121.01" x2="1262.37" y2="107.63"/><line class="cls-1" x1="1249.06" y1="118.96" x2="1258.38" y2="105.52"/><line class="cls-1" x1="1244.71" y1="116.21" x2="1253.89" y2="102.69"/><line class="cls-1" x1="1240.82" y1="114.19" x2="1249.88" y2="100.6"/><line class="cls-1" x1="1236.33" y1="111.64" x2="1245.25" y2="97.97"/><line class="cls-1" x1="1232.35" y1="109.76" x2="1241.15" y2="96.03"/><line class="cls-1" x1="1227.86" y1="107.21" x2="1236.52" y2="93.41"/><line class="cls-1" x1="1223.88" y1="105.33" x2="1232.42" y2="91.47"/><line class="cls-1" x1="1219.39" y1="102.78" x2="1227.79" y2="88.84"/><line class="cls-1" x1="1215.36" y1="101.01" x2="1223.63" y2="87.01"/><line class="cls-1" x1="1210.74" y1="98.66" x2="1218.86" y2="84.59"/><line class="cls-1" x1="1206.66" y1="96.96" x2="1214.66" y2="82.83"/><line class="cls-1" x1="1202.04" y1="94.61" x2="1209.9" y2="80.41"/><line class="cls-1" x1="1197.97" y1="92.91" x2="1205.7" y2="78.66"/><line class="cls-1" x1="1193.34" y1="90.56" x2="1200.93" y2="76.24"/><line class="cls-1" x1="1189.18" y1="89.04" x2="1196.63" y2="74.67"/><line class="cls-1" x1="1184.43" y1="86.9" x2="1191.74" y2="72.47"/><line class="cls-1" x1="1180.27" y1="85.38" x2="1187.46" y2="70.9"/><line class="cls-1" x1="1175.53" y1="83.24" x2="1182.56" y2="68.69"/><line class="cls-1" x1="1171.37" y1="81.73" x2="1178.28" y2="67.13"/><line class="cls-1" x1="1166.59" y1="79.66" x2="1173.34" y2="65"/><line class="cls-1" x1="1162.35" y1="78.33" x2="1168.97" y2="63.63"/><line class="cls-1" x1="1157.5" y1="76.4" x2="1163.97" y2="61.64"/><line class="cls-1" x1="1153.26" y1="75.07" x2="1159.6" y2="60.27"/><line class="cls-1" x1="1148.41" y1="73.14" x2="1154.6" y2="58.28"/><line class="cls-1" x1="1144.18" y1="71.81" x2="1150.23" y2="56.91"/><line class="cls-1" x1="1139.26" y1="70.04" x2="1145.16" y2="55.08"/><line class="cls-1" x1="1134.95" y1="68.9" x2="1140.72" y2="53.9"/><line class="cls-1" x1="1130" y1="67.19" x2="1135.61" y2="52.14"/><line class="cls-1" x1="1125.7" y1="66.06" x2="1131.18" y2="50.97"/><line class="cls-1" x1="1120.74" y1="64.34" x2="1126.07" y2="49.21"/><line class="cls-1" x1="1116.44" y1="63.21" x2="1121.63" y2="48.04"/><line class="cls-1" x1="1111.41" y1="61.73" x2="1116.44" y2="46.51"/><line class="cls-1" x1="1107.05" y1="60.78" x2="1111.95" y2="45.53"/><line class="cls-1" x1="1102.01" y1="59.3" x2="1106.75" y2="44.01"/><line class="cls-1" x1="1097.65" y1="58.36" x2="1102.26" y2="43.03"/><line class="cls-1" x1="1092.61" y1="56.87" x2="1097.06" y2="41.5"/><line class="cls-1" x1="1088.24" y1="56" x2="1092.55" y2="40.6"/><line class="cls-1" x1="1083.13" y1="54.74" x2="1087.28" y2="39.31"/><line class="cls-1" x1="1078.72" y1="54" x2="1082.73" y2="38.54"/><line class="cls-1" x1="1073.6" y1="52.75" x2="1077.46" y2="37.25"/><line class="cls-1" x1="1069.2" y1="52" x2="1072.92" y2="36.48"/><line class="cls-1" x1="1064.08" y1="50.75" x2="1067.64" y2="35.19"/><line class="cls-1" x1="1059.65" y1="50.13" x2="1063.07" y2="34.55"/><line class="cls-1" x1="1054.48" y1="49.11" x2="1057.74" y2="33.5"/><line class="cls-1" x1="1050.04" y1="48.57" x2="1053.16" y2="32.94"/><line class="cls-1" x1="1044.86" y1="47.55" x2="1047.82" y2="31.89"/><line class="cls-1" x1="1040.42" y1="47.01" x2="1043.24" y2="31.33"/><line class="cls-1" x1="1035.24" y1="45.98" x2="1037.9" y2="30.28"/><line class="cls-1" x1="1030.77" y1="45.62" x2="1033.3" y2="29.9"/><line class="cls-1" x1="1025.55" y1="44.84" x2="1027.91" y2="29.09"/><line class="cls-1" x1="1021.08" y1="44.5" x2="1023.31" y2="28.74"/><line class="cls-1" x1="1015.86" y1="43.72" x2="1017.92" y2="27.94"/><line class="cls-1" x1="1011.39" y1="43.38" x2="1013.31" y2="27.59"/><line class="cls-1" x1="1006.16" y1="42.6" x2="1007.92" y2="26.8"/><line class="cls-1" x1="1001.68" y1="42.47" x2="1003.3" y2="26.65"/><line class="cls-1" x1="996.41" y1="41.93" x2="997.88" y2="26.1"/><line class="cls-1" x1="991.93" y1="41.8" x2="993.26" y2="25.96"/><line class="cls-1" x1="986.67" y1="41.26" x2="987.83" y2="25.4"/><line class="cls-1" x1="982.19" y1="41.13" x2="983.22" y2="25.27"/><line class="cls-1" x1="976.92" y1="40.62" x2="977.78" y2="24.75"/><line class="cls-1" x1="972.43" y1="40.69" x2="973.16" y2="24.82"/><line class="cls-1" x1="967.15" y1="40.4" x2="967.71" y2="24.52"/><line class="cls-1" x1="962.67" y1="40.47" x2="963.09" y2="24.59"/><line class="cls-1" x1="957.38" y1="40.17" x2="957.64" y2="24.28"/><line class="cls-1" x1="952.9" y1="40.25" x2="953.03" y2="24.36"/><line class="cls-1" x1="947.61" y1="39.99" x2="947.57" y2="24.1"/><line class="cls-1" x1="943.13" y1="40.27" x2="942.96" y2="24.39"/><line class="cls-1" x1="937.83" y1="40.22" x2="937.5" y2="24.33"/><line class="cls-1" x1="933.36" y1="40.5" x2="932.9" y2="24.62"/><line class="cls-1" x1="928.06" y1="40.44" x2="927.44" y2="24.56"/><line class="cls-1" x1="923.59" y1="40.72" x2="922.83" y2="24.85"/><line class="cls-1" x1="918.29" y1="40.72" x2="917.37" y2="24.86"/><line class="cls-1" x1="913.84" y1="41.21" x2="912.78" y2="25.35"/><line class="cls-1" x1="908.55" y1="41.4" x2="907.32" y2="25.55"/><line class="cls-1" x1="904.1" y1="41.89" x2="902.74" y2="26.05"/><line class="cls-1" x1="898.8" y1="42.07" x2="897.28" y2="26.24"/><line class="cls-1" x1="894.35" y1="42.56" x2="892.69" y2="26.74"/><line class="cls-1" x1="889.07" y1="42.83" x2="887.24" y2="27.03"/><line class="cls-1" x1="884.64" y1="43.52" x2="882.68" y2="27.73"/><line class="cls-1" x1="879.37" y1="43.95" x2="877.25" y2="28.18"/><line class="cls-1" x1="874.95" y1="44.64" x2="872.69" y2="28.89"/><line class="cls-1" x1="869.68" y1="45.07" x2="867.25" y2="29.33"/><line class="cls-1" x1="865.26" y1="45.76" x2="862.7" y2="30.04"/><line class="cls-1" x1="860" y1="46.31" x2="857.28" y2="30.61"/><line class="cls-1" x1="855.63" y1="47.2" x2="852.77" y2="31.53"/><line class="cls-1" x1="850.38" y1="47.87" x2="847.36" y2="32.22"/><line class="cls-1" x1="846.01" y1="48.76" x2="842.85" y2="33.14"/><line class="cls-1" x1="840.76" y1="49.43" x2="837.44" y2="33.83"/><line class="cls-1" x1="836.39" y1="50.32" x2="832.94" y2="34.75"/><line class="cls-1" x1="831.18" y1="51.16" x2="827.56" y2="35.62"/><line class="cls-1" x1="826.86" y1="52.25" x2="823.1" y2="36.74"/><line class="cls-1" x1="821.66" y1="53.16" x2="817.74" y2="37.68"/><line class="cls-1" x1="817.34" y1="54.25" x2="813.29" y2="38.79"/><line class="cls-1" x1="812.14" y1="55.16" x2="807.93" y2="39.74"/><line class="cls-1" x1="807.82" y1="56.25" x2="803.47" y2="40.86"/><line class="cls-1" x1="802.68" y1="57.38" x2="798.17" y2="42.03"/><line class="cls-1" x1="798.42" y1="58.66" x2="793.78" y2="43.34"/><line class="cls-1" x1="793.28" y1="59.81" x2="788.48" y2="44.53"/><line class="cls-1" x1="789.03" y1="61.09" x2="784.09" y2="45.85"/><line class="cls-1" x1="783.88" y1="62.23" x2="778.79" y2="47.03"/><line class="cls-1" x1="779.65" y1="63.56" x2="774.42" y2="48.4"/><line class="cls-1" x1="774.57" y1="64.94" x2="769.19" y2="49.82"/><line class="cls-1" x1="770.39" y1="66.41" x2="764.88" y2="51.33"/><line class="cls-1" x1="765.32" y1="67.78" x2="759.65" y2="52.76"/><line class="cls-1" x1="761.14" y1="69.26" x2="755.34" y2="54.27"/><line class="cls-1" x1="756.06" y1="70.63" x2="750.1" y2="55.69"/><line class="cls-1" x1="751.94" y1="72.22" x2="745.84" y2="57.33"/><line class="cls-1" x1="746.94" y1="73.82" x2="740.7" y2="58.98"/><line class="cls-1" x1="742.85" y1="75.48" x2="736.47" y2="60.69"/><line class="cls-1" x1="737.85" y1="77.08" x2="731.32" y2="62.34"/><line class="cls-1" x1="733.76" y1="78.74" x2="727.1" y2="64.05"/><line class="cls-1" x1="728.76" y1="80.34" x2="721.95" y2="65.71"/><line class="cls-1" x1="724.76" y1="82.18" x2="717.82" y2="67.6"/><line class="cls-1" x1="719.86" y1="84" x2="712.77" y2="69.48"/><line class="cls-1" x1="715.86" y1="85.84" x2="708.64" y2="71.37"/><line class="cls-1" x1="710.96" y1="87.66" x2="703.59" y2="73.25"/><line class="cls-1" x1="706.96" y1="89.5" x2="699.47" y2="75.14"/><line class="cls-1" x1="702.09" y1="91.4" x2="694.45" y2="77.11"/><line class="cls-1" x1="698.2" y1="93.42" x2="690.43" y2="79.18"/><line class="cls-1" x1="693.4" y1="95.45" x2="685.48" y2="81.28"/><line class="cls-1" x1="689.5" y1="97.46" x2="681.46" y2="83.36"/><line class="cls-1" x1="684.7" y1="99.5" x2="676.52" y2="85.46"/><line class="cls-1" x1="680.81" y1="101.51" x2="672.5" y2="87.53"/><line class="cls-1" x1="676.09" y1="103.7" x2="667.64" y2="89.79"/><line class="cls-1" x1="672.31" y1="105.89" x2="663.73" y2="92.04"/><line class="cls-1" x1="667.62" y1="108.13" x2="658.91" y2="94.36"/><line class="cls-1" x1="663.84" y1="110.31" x2="655" y2="96.6"/><line class="cls-1" x1="659.15" y1="112.56" x2="650.17" y2="98.92"/><line class="cls-1" x1="655.39" y1="114.77" x2="646.29" y2="101.2"/><line class="cls-1" x1="650.83" y1="117.21" x2="641.59" y2="103.72"/><line class="cls-1" x1="647.16" y1="119.56" x2="637.81" y2="106.14"/><line class="cls-1" x1="642.6" y1="122.01" x2="633.11" y2="108.66"/><line class="cls-1" x1="638.94" y1="124.35" x2="629.33" y2="111.08"/><line class="cls-1" x1="634.37" y1="126.8" x2="624.63" y2="113.61"/><line class="cls-1" x1="630.79" y1="129.25" x2="620.93" y2="116.13"/><line class="cls-1" x1="626.36" y1="131.89" x2="616.37" y2="118.85"/><line class="cls-1" x1="622.83" y1="134.4" x2="612.72" y2="121.43"/><line class="cls-1" x1="618.4" y1="137.04" x2="608.16" y2="124.16"/><line class="cls-1" x1="614.86" y1="139.54" x2="604.52" y2="126.74"/><line class="cls-1" x1="610.45" y1="142.2" x2="599.97" y2="129.49"/><line class="cls-1" x1="607.04" y1="144.86" x2="596.46" y2="132.22"/><line class="cls-1" x1="602.76" y1="147.7" x2="592.04" y2="135.15"/><line class="cls-1" x1="599.36" y1="150.35" x2="588.54" y2="137.88"/><line class="cls-1" x1="595.08" y1="153.19" x2="584.12" y2="140.81"/><line class="cls-1" x1="591.68" y1="155.84" x2="580.62" y2="143.54"/><line class="cls-1" x1="587.48" y1="158.76" x2="576.29" y2="146.56"/><line class="cls-1" x1="584.22" y1="161.57" x2="572.92" y2="149.44"/><line class="cls-1" x1="580.09" y1="164.58" x2="568.67" y2="152.55"/><line class="cls-1" x1="576.83" y1="167.38" x2="565.31" y2="155.44"/><line class="cls-1" x1="572.7" y1="170.4" x2="561.06" y2="158.55"/><line class="cls-1" x1="569.45" y1="173.2" x2="557.7" y2="161.43"/><line class="cls-1" x1="565.47" y1="176.37" x2="553.6" y2="164.71"/><line class="cls-1" x1="562.36" y1="179.31" x2="550.4" y2="167.73"/><line class="cls-1" x1="558.4" y1="182.51" x2="546.31" y2="171.03"/><line class="cls-1" x1="555.29" y1="185.44" x2="543.11" y2="174.05"/><line class="cls-1" x1="551.32" y1="188.64" x2="539.02" y2="177.35"/><line class="cls-1" x1="548.28" y1="191.63" x2="535.88" y2="180.43"/><line class="cls-1" x1="544.49" y1="194.99" x2="531.98" y2="183.89"/><line class="cls-1" x1="541.54" y1="198.06" x2="528.93" y2="187.05"/><line class="cls-1" x1="537.75" y1="201.42" x2="525.03" y2="190.52"/><line class="cls-1" x1="534.8" y1="204.49" x2="521.98" y2="193.68"/><line class="cls-1" x1="531" y1="207.85" x2="518.08" y2="197.15"/><line class="cls-1" x1="528.2" y1="211.03" x2="515.18" y2="200.43"/><line class="cls-1" x1="524.59" y1="214.55" x2="511.46" y2="204.06"/><line class="cls-1" x1="521.8" y1="217.75" x2="508.59" y2="207.35"/><line class="cls-1" x1="518.19" y1="221.27" x2="504.87" y2="210.98"/><line class="cls-1" x1="515.41" y1="224.46" x2="501.99" y2="214.27"/><line class="cls-1" x1="511.86" y1="228.03" x2="498.34" y2="217.96"/><line class="cls-1" x1="509.24" y1="231.35" x2="495.64" y2="221.37"/><line class="cls-1" x1="505.82" y1="235.02" x2="492.11" y2="225.16"/><line class="cls-1" x1="503.2" y1="238.33" x2="489.42" y2="228.57"/><line class="cls-1" x1="499.78" y1="242" x2="485.89" y2="232.36"/><line class="cls-1" x1="497.17" y1="245.31" x2="483.19" y2="235.77"/><line class="cls-1" x1="493.89" y1="249.09" x2="479.82" y2="239.67"/><line class="cls-1" x1="491.46" y1="252.52" x2="477.3" y2="243.19"/><line class="cls-1" x1="488.23" y1="256.34" x2="473.98" y2="247.13"/><line class="cls-1" x1="485.79" y1="259.75" x2="471.47" y2="250.65"/><line class="cls-1" x1="482.56" y1="263.57" x2="468.15" y2="254.6"/><line class="cls-1" x1="480.16" y1="267.01" x2="465.67" y2="258.14"/><line class="cls-1" x1="477.15" y1="270.97" x2="462.56" y2="262.21"/><line class="cls-1" x1="474.89" y1="274.49" x2="460.23" y2="265.85"/><line class="cls-1" x1="471.87" y1="278.45" x2="457.12" y2="269.93"/><line class="cls-1" x1="469.62" y1="281.97" x2="454.79" y2="273.55"/><line class="cls-1" x1="466.6" y1="285.92" x2="451.68" y2="277.64"/><line class="cls-1" x1="464.47" y1="289.51" x2="449.49" y2="281.33"/><line class="cls-1" x1="461.66" y1="293.59" x2="446.6" y2="285.54"/><line class="cls-1" x1="459.6" y1="297.21" x2="444.46" y2="289.27"/><line class="cls-1" x1="456.79" y1="301.29" x2="441.57" y2="293.48"/><line class="cls-1" x1="454.73" y1="304.91" x2="439.44" y2="297.21"/><line class="cls-1" x1="451.94" y1="309.01" x2="436.58" y2="301.43"/><line class="cls-1" x1="450.07" y1="312.71" x2="434.64" y2="305.25"/><line class="cls-1" x1="447.49" y1="316.91" x2="431.98" y2="309.59"/><line class="cls-1" x1="445.62" y1="320.62" x2="430.05" y2="313.4"/><line class="cls-1" x1="443.03" y1="324.82" x2="427.39" y2="317.74"/><line class="cls-1" x1="441.17" y1="328.52" x2="425.46" y2="321.55"/><line class="cls-1" x1="438.69" y1="332.78" x2="422.91" y2="325.94"/><line class="cls-1" x1="437.02" y1="336.56" x2="421.18" y2="329.84"/><line class="cls-1" x1="434.66" y1="340.87" x2="418.76" y2="334.29"/><line class="cls-1" x1="433" y1="344.65" x2="417.03" y2="338.19"/><line class="cls-1" x1="430.64" y1="348.96" x2="414.61" y2="342.63"/><line class="cls-1" x1="428.97" y1="352.74" x2="412.89" y2="346.53"/><line class="cls-1" x1="426.81" y1="357.13" x2="410.66" y2="351.06"/><line class="cls-1" x1="425.35" y1="360.99" x2="409.15" y2="355.03"/><line class="cls-1" x1="423.23" y1="365.4" x2="406.96" y2="359.58"/><line class="cls-1" x1="421.77" y1="369.25" x2="405.45" y2="363.55"/><line class="cls-1" x1="419.64" y1="373.66" x2="403.27" y2="368.1"/><line class="cls-1" x1="418.22" y1="377.52" x2="401.8" y2="372.08"/><line class="cls-1" x1="416.34" y1="382.02" x2="399.86" y2="376.72"/><line class="cls-1" x1="415.09" y1="385.94" x2="398.57" y2="380.76"/><line class="cls-1" x1="413.21" y1="390.44" x2="396.63" y2="385.4"/><line class="cls-1" x1="411.96" y1="394.35" x2="395.34" y2="389.43"/><line class="cls-1" x1="410.08" y1="398.85" x2="393.41" y2="394.08"/><line class="cls-1" x1="408.94" y1="402.79" x2="392.23" y2="398.14"/><line class="cls-1" x1="407.31" y1="407.37" x2="390.55" y2="402.86"/><line class="cls-1" x1="406.28" y1="411.33" x2="389.48" y2="406.95"/><line class="cls-1" x1="404.64" y1="415.91" x2="387.8" y2="411.67"/><line class="cls-1" x1="403.61" y1="419.88" x2="386.73" y2="415.76"/><line class="cls-1" x1="401.97" y1="424.46" x2="385.05" y2="420.48"/><line class="cls-1" x1="401.13" y1="428.46" x2="384.17" y2="424.61"/><line class="cls-1" x1="399.75" y1="433.11" x2="382.75" y2="429.4"/><line class="cls-1" x1="398.93" y1="437.12" x2="381.91" y2="433.53"/><line class="cls-1" x1="397.55" y1="441.76" x2="380.49" y2="438.33"/><line class="cls-1" x1="396.74" y1="445.77" x2="379.64" y2="442.46"/><line class="cls-1" x1="395.39" y1="450.43" x2="378.26" y2="447.26"/><line class="cls-1" x1="394.79" y1="454.47" x2="377.64" y2="451.43"/><line class="cls-1" x1="393.67" y1="459.17" x2="376.49" y2="456.28"/><line class="cls-1" x1="393.08" y1="463.21" x2="375.87" y2="460.44"/><line class="cls-1" x1="391.95" y1="467.92" x2="374.72" y2="465.3"/><line class="cls-1" x1="391.36" y1="471.95" x2="374.1" y2="469.46"/><line class="cls-1" x1="390.32" y1="476.68" x2="373.04" y2="474.33"/><line class="cls-1" x1="389.95" y1="480.74" x2="372.65" y2="478.52"/><line class="cls-1" x1="389.09" y1="485.49" x2="371.77" y2="483.41"/><line class="cls-1" x1="388.72" y1="489.55" x2="371.38" y2="487.6"/><line class="cls-1" x1="387.86" y1="494.3" x2="370.5" y2="492.5"/><line class="cls-1" x1="387.49" y1="498.36" x2="370.11" y2="496.68"/><line class="cls-1" x1="386.76" y1="503.13" x2="369.37" y2="501.6"/><line class="cls-1" x1="386.62" y1="507.21" x2="369.21" y2="505.8"/><line class="cls-1" x1="386.02" y1="511.99" x2="368.6" y2="510.73"/><line class="cls-1" x1="385.88" y1="516.06" x2="368.44" y2="514.93"/><line class="cls-1" x1="385.28" y1="520.85" x2="367.84" y2="519.86"/><line class="cls-1" x1="385.14" y1="524.92" x2="367.68" y2="524.06"/><line class="cls-1" x1="384.7" y1="529.72" x2="367.24" y2="529"/><line class="cls-1" x1="384.78" y1="533.79" x2="367.32" y2="533.2"/><line class="cls-1" x1="384.46" y1="538.6" x2="366.98" y2="538.15"/><line class="cls-1" x1="384.54" y1="542.67" x2="367.06" y2="542.35"/><line class="cls-1" x1="384.21" y1="547.48" x2="366.73" y2="547.31"/><line class="cls-1" x1="384.29" y1="551.55" x2="366.81" y2="551.5"/><line class="cls-1" x1="384.13" y1="556.37" x2="366.66" y2="556.46"/><line class="cls-1" x1="384.44" y1="560.44" x2="366.97" y2="560.66"/><line class="cls-1" x1="384.38" y1="565.25" x2="366.91" y2="565.62"/><line class="cls-1" x1="384.69" y1="569.32" x2="367.22" y2="569.81"/><line class="cls-1" x1="384.63" y1="574.13" x2="367.17" y2="574.77"/><line class="cls-1" x1="384.94" y1="578.2" x2="367.48" y2="578.96"/><line class="cls-1" x1="385.06" y1="583.01" x2="367.61" y2="583.92"/><line class="cls-1" x1="385.6" y1="587.06" x2="368.16" y2="588.09"/><line class="cls-1" x1="385.81" y1="591.87" x2="368.38" y2="593.05"/><line class="cls-1" x1="386.34" y1="595.91" x2="368.92" y2="597.22"/><line class="cls-1" x1="386.55" y1="600.73" x2="369.14" y2="602.18"/><line class="cls-1" x1="387.08" y1="604.77" x2="369.69" y2="606.35"/><line class="cls-1" x1="387.5" y1="609.57" x2="370.13" y2="611.29"/><line class="cls-1" x1="388.26" y1="613.59" x2="370.9" y2="615.44"/><line class="cls-1" x1="388.74" y1="618.38" x2="371.4" y2="620.38"/><line class="cls-1" x1="389.49" y1="622.4" x2="372.17" y2="624.52"/><line class="cls-1" x1="389.97" y1="627.19" x2="372.67" y2="629.46"/><line class="cls-1" x1="390.72" y1="631.21" x2="373.44" y2="633.6"/><line class="cls-1" x1="391.45" y1="635.97" x2="374.2" y2="638.51"/><line class="cls-1" x1="392.43" y1="639.95" x2="375.2" y2="642.62"/><line class="cls-1" x1="393.17" y1="644.72" x2="375.97" y2="647.53"/><line class="cls-1" x1="394.15" y1="648.69" x2="376.97" y2="651.63"/><line class="cls-1" x1="394.89" y1="653.46" x2="377.74" y2="656.55"/><line class="cls-1" x1="395.91" y1="657.43" x2="378.79" y2="660.64"/><line class="cls-1" x1="396.91" y1="662.15" x2="379.83" y2="665.51"/><line class="cls-1" x1="398.11" y1="666.08" x2="381.06" y2="669.56"/><line class="cls-1" x1="399.11" y1="670.81" x2="382.09" y2="674.43"/><line class="cls-1" x1="400.31" y1="674.73" x2="383.32" y2="678.48"/><line class="cls-1" x1="401.3" y1="679.46" x2="384.36" y2="683.36"/><line class="cls-1" x1="402.61" y1="683.36" x2="385.7" y2="687.38"/><line class="cls-1" x1="403.86" y1="688.03" x2="387" y2="692.2"/><line class="cls-1" x1="405.28" y1="691.9" x2="388.45" y2="696.19"/><line class="cls-1" x1="406.53" y1="696.58" x2="389.75" y2="701.01"/><line class="cls-1" x1="407.94" y1="700.44" x2="391.2" y2="705"/><line class="cls-1" x1="409.2" y1="705.13" x2="392.5" y2="709.82"/><line class="cls-1" x1="410.78" y1="708.94" x2="394.13" y2="713.76"/><line class="cls-1" x1="412.3" y1="713.55" x2="395.69" y2="718.51"/><line class="cls-1" x1="413.92" y1="717.35" x2="397.36" y2="722.43"/><line class="cls-1" x1="415.43" y1="721.96" x2="398.92" y2="727.19"/><line class="cls-1" x1="417.05" y1="725.76" x2="400.59" y2="731.1"/><line class="cls-1" x1="418.59" y1="730.37" x2="402.19" y2="735.85"/><line class="cls-1" x1="420.42" y1="734.09" x2="404.07" y2="739.69"/><line class="cls-1" x1="422.18" y1="738.63" x2="405.88" y2="744.37"/><line class="cls-1" x1="424.01" y1="742.35" x2="407.76" y2="748.21"/><line class="cls-1" x1="425.76" y1="746.9" x2="409.58" y2="752.9"/><line class="cls-1" x1="427.59" y1="750.61" x2="411.46" y2="756.73"/><line class="cls-1" x1="429.46" y1="755.12" x2="413.4" y2="761.37"/><line class="cls-1" x1="431.49" y1="758.75" x2="415.48" y2="765.13"/><line class="cls-1" x1="433.49" y1="763.21" x2="417.55" y2="769.72"/><line class="cls-1" x1="435.51" y1="766.85" x2="419.63" y2="773.47"/><line class="cls-1" x1="437.51" y1="771.31" x2="421.7" y2="778.07"/><line class="cls-1" x1="439.54" y1="774.94" x2="423.78" y2="781.81"/><line class="cls-1" x1="441.73" y1="779.31" x2="426.05" y2="786.32"/><line class="cls-1" x1="443.95" y1="782.86" x2="428.33" y2="789.98"/><line class="cls-1" x1="446.19" y1="787.22" x2="430.64" y2="794.48"/><line class="cls-1" x1="448.41" y1="790.76" x2="432.92" y2="798.13"/><line class="cls-1" x1="450.64" y1="795.13" x2="435.24" y2="802.63"/><line class="cls-1" x1="452.9" y1="798.64" x2="437.56" y2="806.26"/><line class="cls-1" x1="455.37" y1="802.9" x2="440.11" y2="810.64"/><line class="cls-1" x1="457.78" y1="806.34" x2="442.58" y2="814.19"/><line class="cls-1" x1="460.24" y1="810.6" x2="445.13" y2="818.58"/><line class="cls-1" x1="462.64" y1="814.04" x2="447.6" y2="822.13"/><line class="cls-1" x1="465.11" y1="818.31" x2="450.16" y2="826.52"/><line class="cls-1" x1="467.64" y1="821.67" x2="452.76" y2="830"/><line class="cls-1" x1="470.33" y1="825.81" x2="455.53" y2="834.27"/><line class="cls-1" x1="472.92" y1="829.15" x2="458.19" y2="837.7"/><line class="cls-1" x1="475.61" y1="833.29" x2="460.97" y2="841.98"/><line class="cls-1" x1="478.19" y1="836.62" x2="463.63" y2="845.41"/><line class="cls-1" x1="480.91" y1="840.75" x2="466.44" y2="849.67"/><line class="cls-1" x1="483.67" y1="843.97" x2="469.28" y2="852.99"/><line class="cls-1" x1="486.58" y1="847.99" x2="472.28" y2="857.13"/><line class="cls-1" x1="489.33" y1="851.21" x2="475.11" y2="860.45"/><line class="cls-1" x1="492.24" y1="855.23" x2="478.12" y2="864.6"/><line class="cls-1" x1="494.99" y1="858.45" x2="480.95" y2="867.91"/><line class="cls-1" x1="498.02" y1="862.4" x2="484.07" y2="871.98"/><line class="cls-1" x1="500.94" y1="865.49" x2="487.08" y2="875.17"/><line class="cls-1" x1="504.06" y1="869.38" x2="490.3" y2="879.18"/><line class="cls-1" x1="506.98" y1="872.48" x2="493.3" y2="882.37"/><line class="cls-1" x1="510.09" y1="876.37" x2="496.52" y2="886.38"/><line class="cls-1" x1="513.01" y1="879.46" x2="499.53" y2="889.57"/><line class="cls-1" x1="516.32" y1="883.22" x2="502.94" y2="893.44"/><line class="cls-1" x1="519.4" y1="886.18" x2="506.11" y2="896.5"/><line class="cls-1" x1="522.72" y1="889.93" x2="509.54" y2="900.36"/><line class="cls-1" x1="525.8" y1="892.89" x2="512.71" y2="903.42"/><line class="cls-1" x1="529.12" y1="896.65" x2="516.14" y2="907.28"/><line class="cls-1" x1="532.27" y1="899.55" x2="519.38" y2="910.27"/><line class="cls-1" x1="535.78" y1="903.15" x2="523" y2="913.99"/><line class="cls-1" x1="539.01" y1="905.97" x2="526.33" y2="916.9"/><line class="cls-1" x1="542.52" y1="909.58" x2="529.95" y2="920.61"/><line class="cls-1" x1="545.75" y1="912.4" x2="533.28" y2="923.53"/><line class="cls-1" x1="549.27" y1="916.01" x2="536.9" y2="927.24"/><line class="cls-1" x1="552.64" y1="918.7" x2="540.37" y2="930.02"/><line class="cls-1" x1="556.34" y1="922.15" x2="544.19" y2="933.57"/><line class="cls-1" x1="559.71" y1="924.83" x2="547.66" y2="936.34"/><line class="cls-1" x1="563.41" y1="928.28" x2="551.48" y2="939.89"/><line class="cls-1" x1="566.78" y1="930.96" x2="554.95" y2="942.65"/><line class="cls-1" x1="570.55" y1="934.35" x2="558.84" y2="946.14"/><line class="cls-1" x1="574.06" y1="936.88" x2="562.46" y2="948.76"/><line class="cls-1" x1="577.94" y1="940.16" x2="566.45" y2="952.14"/><line class="cls-1" x1="581.45" y1="942.69" x2="570.07" y2="954.75"/><line class="cls-1" x1="585.32" y1="945.98" x2="574.07" y2="958.13"/><line class="cls-1" x1="588.83" y1="948.51" x2="577.68" y2="960.74"/><line class="cls-1" x1="592.84" y1="951.65" x2="581.81" y2="963.98"/><line class="cls-1" x1="596.48" y1="954.03" x2="585.57" y2="966.44"/><line class="cls-1" x1="600.52" y1="957.14" x2="589.73" y2="969.64"/><line class="cls-1" x1="604.16" y1="959.52" x2="593.48" y2="972.1"/><line class="cls-1" x1="608.21" y1="962.63" x2="597.66" y2="975.3"/><line class="cls-1" x1="611.88" y1="964.97" x2="601.44" y2="977.71"/><line class="cls-1" x1="616.08" y1="967.9" x2="605.77" y2="980.73"/><line class="cls-1" x1="619.84" y1="970.11" x2="609.64" y2="983.02"/><line class="cls-1" x1="624.04" y1="973.05" x2="613.98" y2="986.04"/><line class="cls-1" x1="627.8" y1="975.26" x2="617.85" y2="988.32"/><line class="cls-1" x1="632" y1="978.2" x2="622.19" y2="991.35"/><line class="cls-1" x1="635.85" y1="980.29" x2="626.15" y2="993.51"/><line class="cls-1" x1="640.2" y1="983.03" x2="630.64" y2="996.33"/><line class="cls-1" x1="644.08" y1="985.08" x2="634.63" y2="998.45"/><line class="cls-1" x1="648.43" y1="987.83" x2="639.12" y2="1001.28"/><line class="cls-1" x1="652.3" y1="989.88" x2="643.11" y2="1003.39"/><line class="cls-1" x1="656.68" y1="992.59" x2="647.63" y2="1006.18"/><line class="cls-1" x1="660.66" y1="994.47" x2="651.73" y2="1008.12"/><line class="cls-1" x1="665.15" y1="997.02" x2="656.36" y2="1010.75"/><line class="cls-1" x1="669.13" y1="998.89" x2="660.46" y2="1012.69"/><line class="cls-1" x1="673.62" y1="1001.45" x2="665.09" y2="1015.32"/><line class="cls-1" x1="677.6" y1="1003.32" x2="669.19" y2="1017.25"/><line class="cls-1" x1="682.16" y1="1005.76" x2="673.9" y2="1019.76"/><line class="cls-1" x1="686.24" y1="1007.46" x2="678.1" y2="1021.52"/><line class="cls-1" x1="690.86" y1="1009.81" x2="682.87" y2="1023.94"/><line class="cls-1" x1="694.94" y1="1011.51" x2="687.07" y2="1025.69"/><line class="cls-1" x1="699.56" y1="1013.86" x2="691.84" y2="1028.11"/><line class="cls-1" x1="703.63" y1="1015.56" x2="696.03" y2="1029.87"/><line class="cls-1" x1="708.36" y1="1017.71" x2="700.91" y2="1032.09"/><line class="cls-1" x1="712.52" y1="1019.23" x2="705.2" y2="1033.65"/><line class="cls-1" x1="717.26" y1="1021.37" x2="710.09" y2="1035.86"/><line class="cls-1" x1="721.42" y1="1022.89" x2="714.38" y2="1037.43"/><line class="cls-1" x1="726.17" y1="1025.03" x2="719.27" y2="1039.63"/><line class="cls-1" x1="730.35" y1="1026.48" x2="723.59" y2="1041.13"/><line class="cls-1" x1="735.2" y1="1028.41" x2="728.59" y2="1043.12"/><line class="cls-1" x1="739.44" y1="1029.74" x2="732.96" y2="1044.49"/><line class="cls-1" x1="744.29" y1="1031.67" x2="737.96" y2="1046.48"/><line class="cls-1" x1="748.53" y1="1033" x2="742.33" y2="1047.85"/><line class="cls-1" x1="753.38" y1="1034.93" x2="747.34" y2="1049.84"/><line class="cls-1" x1="757.67" y1="1036.12" x2="751.76" y2="1051.07"/><line class="cls-1" x1="762.62" y1="1037.83" x2="756.86" y2="1052.83"/><line class="cls-1" x1="766.92" y1="1038.96" x2="761.3" y2="1054"/><line class="cls-1" x1="771.88" y1="1040.67" x2="766.41" y2="1055.76"/><line class="cls-1" x1="776.18" y1="1041.81" x2="770.84" y2="1056.94"/><line class="cls-1" x1="781.14" y1="1043.5" x2="775.96" y2="1058.68"/><line class="cls-1" x1="785.5" y1="1044.44" x2="780.46" y2="1059.66"/><line class="cls-1" x1="790.54" y1="1045.93" x2="785.65" y2="1061.18"/><line class="cls-1" x1="794.9" y1="1046.87" x2="790.15" y2="1062.16"/><line class="cls-1" x1="799.94" y1="1048.36" x2="795.34" y2="1063.69"/><line class="cls-1" x1="804.29" y1="1049.3" x2="799.84" y2="1064.66"/><line class="cls-1" x1="809.36" y1="1050.7" x2="805.06" y2="1066.1"/><line class="cls-1" x1="813.77" y1="1051.44" x2="809.61" y2="1066.87"/><line class="cls-1" x1="818.88" y1="1052.7" x2="814.88" y2="1068.16"/><line class="cls-1" x1="823.29" y1="1053.44" x2="819.42" y2="1068.93"/><line class="cls-1" x1="828.4" y1="1054.69" x2="824.7" y2="1070.22"/><line class="cls-1" x1="832.81" y1="1055.44" x2="829.24" y2="1070.99"/><line class="cls-1" x1="837.96" y1="1056.55" x2="834.55" y2="1072.14"/><line class="cls-1" x1="842.4" y1="1057.09" x2="839.13" y2="1072.7"/><line class="cls-1" x1="847.58" y1="1058.11" x2="844.47" y2="1073.75"/><line class="cls-1" x1="852.02" y1="1058.65" x2="849.05" y2="1074.31"/><line class="cls-1" x1="857.2" y1="1059.67" x2="854.39" y2="1075.36"/><line class="cls-1" x1="861.63" y1="1060.22" x2="858.96" y2="1075.92"/><line class="cls-1" x1="866.85" y1="1061.04" x2="864.34" y2="1076.77"/><line class="cls-1" x1="871.32" y1="1061.38" x2="868.95" y2="1077.12"/><line class="cls-1" x1="876.54" y1="1062.16" x2="874.33" y2="1077.92"/><line class="cls-1" x1="881.01" y1="1062.5" x2="878.94" y2="1078.28"/><line class="cls-1" x1="886.24" y1="1063.28" x2="884.33" y2="1079.08"/><line class="cls-1" x1="890.7" y1="1063.62" x2="888.93" y2="1079.43"/><line class="cls-1" x1="895.96" y1="1064.17" x2="894.35" y2="1079.99"/><line class="cls-1" x1="900.44" y1="1064.3" x2="898.97" y2="1080.13"/><line class="cls-1" x1="905.71" y1="1064.84" x2="904.39" y2="1080.69"/><line class="cls-1" x1="910.18" y1="1064.98" x2="909.01" y2="1080.83"/><line class="cls-1" x1="915.45" y1="1065.52" x2="914.44" y2="1081.38"/><line class="cls-1" x1="919.93" y1="1065.63" x2="919.05" y2="1081.5"/><line class="cls-1" x1="925.21" y1="1065.93" x2="924.5" y2="1081.81"/><line class="cls-1" x1="929.7" y1="1065.86" x2="929.12" y2="1081.74"/><line class="cls-1" x1="934.98" y1="1066.16" x2="934.57" y2="1082.04"/><line class="cls-1" x1="939.47" y1="1066.08" x2="939.19" y2="1081.97"/><line class="cls-1" x1="944.76" y1="1066.38" x2="944.64" y2="1082.27"/><line class="cls-1" x1="949.23" y1="1066.28" x2="949.25" y2="1082.17"/><line class="cls-1" x1="954.53" y1="1066.34" x2="954.71" y2="1082.22"/><line class="cls-1" x1="959" y1="1066.05" x2="959.32" y2="1081.94"/><line class="cls-1" x1="964.3" y1="1066.11" x2="964.78" y2="1081.99"/><line class="cls-1" x1="968.77" y1="1065.83" x2="969.39" y2="1081.71"/><line class="cls-1" x1="974.07" y1="1065.89" x2="974.85" y2="1081.76"/><line class="cls-1" x1="978.54" y1="1065.57" x2="979.45" y2="1081.43"/><line class="cls-1" x1="983.83" y1="1065.38" x2="984.9" y2="1081.24"/><line class="cls-1" x1="988.28" y1="1064.89" x2="989.49" y2="1080.74"/><line class="cls-1" x1="993.57" y1="1064.7" x2="994.95" y2="1080.54"/><line class="cls-1" x1="998.02" y1="1064.22" x2="999.53" y2="1080.05"/><line class="cls-1" x1="1003.32" y1="1064.03" x2="1004.99" y2="1079.85"/><line class="cls-1" x1="1007.76" y1="1063.48" x2="1009.57" y2="1079.28"/><line class="cls-1" x1="1013.03" y1="1063.05" x2="1015" y2="1078.84"/><line class="cls-1" x1="1017.45" y1="1062.36" x2="1019.56" y2="1078.13"/><line class="cls-1" x1="1022.72" y1="1061.93" x2="1025" y2="1077.68"/><line class="cls-1" x1="1027.14" y1="1061.24" x2="1029.55" y2="1076.98"/><line class="cls-1" x1="1032.42" y1="1060.81" x2="1034.99" y2="1076.53"/><line class="cls-1" x1="1036.81" y1="1060.02" x2="1039.52" y2="1075.72"/><line class="cls-1" x1="1042.06" y1="1059.35" x2="1044.93" y2="1075.02"/><line class="cls-1" x1="1046.43" y1="1058.46" x2="1049.44" y2="1074.11"/><line class="cls-1" x1="1051.68" y1="1057.79" x2="1054.85" y2="1073.41"/><line class="cls-1" x1="1056.05" y1="1056.9" x2="1059.36" y2="1072.5"/><line class="cls-1" x1="1061.3" y1="1056.23" x2="1064.77" y2="1071.8"/><line class="cls-1" x1="1065.63" y1="1055.19" x2="1069.24" y2="1070.73"/><line class="cls-1" x1="1070.83" y1="1054.28" x2="1074.6" y2="1069.79"/><line class="cls-1" x1="1075.15" y1="1053.19" x2="1079.05" y2="1068.68"/><line class="cls-1" x1="1080.35" y1="1052.28" x2="1084.41" y2="1067.73"/><line class="cls-1" x1="1084.67" y1="1051.19" x2="1088.87" y2="1066.62"/><line class="cls-1" x1="1089.87" y1="1050.28" x2="1094.23" y2="1065.66"/><line class="cls-1" x1="1094.13" y1="1048.99" x2="1098.62" y2="1064.35"/><line class="cls-1" x1="1099.27" y1="1047.85" x2="1103.92" y2="1063.16"/><line class="cls-1" x1="1103.52" y1="1046.57" x2="1108.31" y2="1061.85"/><line class="cls-1" x1="1108.67" y1="1045.42" x2="1113.62" y2="1060.66"/><line class="cls-1" x1="1112.92" y1="1044.14" x2="1118" y2="1059.34"/><line class="cls-1" x1="1118.05" y1="1042.93" x2="1123.28" y2="1058.09"/><line class="cls-1" x1="1122.23" y1="1041.45" x2="1127.6" y2="1056.57"/><line class="cls-1" x1="1127.3" y1="1040.08" x2="1132.83" y2="1055.15"/><line class="cls-1" x1="1131.48" y1="1038.61" x2="1137.14" y2="1053.64"/><line class="cls-1" x1="1136.56" y1="1037.23" x2="1142.37" y2="1052.22"/><line class="cls-1" x1="1140.73" y1="1035.76" x2="1146.68" y2="1050.7"/><line class="cls-1" x1="1145.76" y1="1034.25" x2="1151.86" y2="1049.14"/><line class="cls-1" x1="1149.85" y1="1032.59" x2="1156.09" y2="1047.43"/><line class="cls-1" x1="1154.85" y1="1030.99" x2="1161.24" y2="1045.78"/><line class="cls-1" x1="1158.94" y1="1029.33" x2="1165.46" y2="1044.07"/><line class="cls-1" x1="1163.94" y1="1027.73" x2="1170.61" y2="1042.42"/><line class="cls-1" x1="1168.03" y1="1026.08" x2="1174.83" y2="1040.71"/><line class="cls-1" x1="1172.93" y1="1024.27" x2="1179.89" y2="1038.85"/><line class="cls-1" x1="1176.94" y1="1022.43" x2="1184.01" y2="1036.96"/><line class="cls-1" x1="1181.84" y1="1020.61" x2="1189.07" y2="1035.07"/><line class="cls-1" x1="1185.84" y1="1018.77" x2="1193.19" y2="1033.18"/><line class="cls-1" x1="1190.74" y1="1016.95" x2="1198.25" y2="1031.3"/><line class="cls-1" x1="1194.7" y1="1015.05" x2="1202.34" y2="1029.34"/><line class="cls-1" x1="1199.5" y1="1013.02" x2="1207.28" y2="1027.24"/><line class="cls-1" x1="1203.4" y1="1011" x2="1211.3" y2="1025.17"/><line class="cls-1" x1="1208.2" y1="1008.97" x2="1216.25" y2="1023.07"/><line class="cls-1" x1="1212.09" y1="1006.95" x2="1220.27" y2="1021"/><line class="cls-1" x1="1216.9" y1="1004.92" x2="1225.22" y2="1018.89"/><line class="cls-1" x1="1220.71" y1="1002.77" x2="1229.15" y2="1016.68"/><line class="cls-1" x1="1225.39" y1="1000.52" x2="1233.97" y2="1014.36"/><line class="cls-1" x1="1229.18" y1="998.34" x2="1237.88" y2="1012.12"/><line class="cls-1" x1="1233.86" y1="996.1" x2="1242.71" y2="1009.8"/><line class="cls-1" x1="1237.64" y1="993.91" x2="1246.61" y2="1007.55"/><line class="cls-1" x1="1242.31" y1="991.63" x2="1251.41" y2="1005.19"/><line class="cls-1" x1="1245.97" y1="989.28" x2="1255.2" y2="1002.77"/><line class="cls-1" x1="1250.53" y1="986.83" x2="1259.9" y2="1000.25"/><line class="cls-1" x1="1254.2" y1="984.48" x2="1263.68" y2="997.83"/><line class="cls-1" x1="1258.76" y1="982.04" x2="1268.38" y2="995.3"/><line class="cls-1" x1="1262.42" y1="979.69" x2="1272.15" y2="992.89"/><line class="cls-1" x1="1266.9" y1="977.12" x2="1276.77" y2="990.24"/><line class="cls-1" x1="1270.44" y1="974.62" x2="1280.42" y2="987.66"/><line class="cls-1" x1="1274.87" y1="971.98" x2="1284.98" y2="984.93"/><line class="cls-1" x1="1278.4" y1="969.47" x2="1288.63" y2="982.36"/><line class="cls-1" x1="1282.83" y1="966.83" x2="1293.19" y2="979.62"/><line class="cls-1" x1="1286.36" y1="964.32" x2="1296.83" y2="977.05"/><line class="cls-1" x1="1290.64" y1="961.49" x2="1301.24" y2="974.12"/><line class="cls-1" x1="1294.04" y1="958.83" x2="1304.75" y2="971.39"/><line class="cls-1" x1="1298.33" y1="956" x2="1309.16" y2="968.47"/><line class="cls-1" x1="1301.72" y1="953.35" x2="1312.67" y2="965.73"/><line class="cls-1" x1="1306.01" y1="950.51" x2="1317.08" y2="962.81"/><line class="cls-1" x1="1309.34" y1="947.78" x2="1320.52" y2="960"/><line class="cls-1" x1="1313.46" y1="944.77" x2="1324.77" y2="956.89"/><line class="cls-1" x1="1316.72" y1="941.97" x2="1328.13" y2="954"/><line class="cls-1" x1="1320.85" y1="938.95" x2="1332.38" y2="950.89"/><line class="cls-1" x1="1324.11" y1="936.15" x2="1335.74" y2="948.01"/><line class="cls-1" x1="1328.24" y1="933.13" x2="1340" y2="944.89"/><line class="cls-1" x1="1331.35" y1="930.19" x2="1343.21" y2="941.86"/><line class="cls-1" x1="1335.31" y1="927" x2="1347.29" y2="938.57"/><line class="cls-1" x1="1338.42" y1="924.06" x2="1350.5" y2="935.55"/><line class="cls-1" x1="1342.39" y1="920.87" x2="1354.58" y2="932.25"/><line class="cls-1" x1="1345.49" y1="917.93" x2="1357.78" y2="929.23"/><line class="cls-1" x1="1349.39" y1="914.67" x2="1361.79" y2="925.86"/><line class="cls-1" x1="1352.34" y1="911.6" x2="1364.84" y2="922.7"/><line class="cls-1" x1="1356.13" y1="908.24" x2="1368.75" y2="919.23"/><line class="cls-1" x1="1359.08" y1="905.17" x2="1371.79" y2="916.07"/><line class="cls-1" x1="1362.87" y1="901.81" x2="1375.7" y2="912.6"/><line class="cls-1" x1="1365.82" y1="898.74" x2="1378.74" y2="909.45"/><line class="cls-1" x1="1369.46" y1="895.25" x2="1382.49" y2="905.84"/><line class="cls-1" x1="1372.25" y1="892.05" x2="1385.36" y2="902.55"/><line class="cls-1" x1="1375.86" y1="888.53" x2="1389.08" y2="898.92"/><line class="cls-1" x1="1378.64" y1="885.34" x2="1391.96" y2="895.63"/><line class="cls-1" x1="1382.26" y1="881.82" x2="1395.68" y2="892"/><line class="cls-1" x1="1384.99" y1="878.59" x2="1398.5" y2="888.67"/><line class="cls-1" x1="1388.41" y1="874.92" x2="1402.02" y2="884.88"/><line class="cls-1" x1="1391.02" y1="871.6" x2="1404.72" y2="881.47"/><line class="cls-1" x1="1394.45" y1="867.93" x2="1408.25" y2="877.68"/><line class="cls-1" x1="1397.06" y1="864.62" x2="1410.94" y2="874.27"/><line class="cls-1" x1="1400.49" y1="860.94" x2="1414.47" y2="870.48"/><line class="cls-1" x1="1402.96" y1="857.54" x2="1417.02" y2="866.98"/><line class="cls-1" x1="1406.19" y1="853.73" x2="1420.35" y2="863.04"/><line class="cls-1" x1="1408.62" y1="850.3" x2="1422.86" y2="859.52"/><line class="cls-1" x1="1411.85" y1="846.49" x2="1426.18" y2="855.58"/><line class="cls-1" x1="1414.28" y1="843.07" x2="1428.7" y2="852.06"/><line class="cls-1" x1="1417.47" y1="839.22" x2="1431.97" y2="848.08"/><line class="cls-1" x1="1419.72" y1="835.69" x2="1434.3" y2="844.45"/><line class="cls-1" x1="1422.74" y1="831.73" x2="1437.41" y2="840.37"/><line class="cls-1" x1="1424.99" y1="828.21" x2="1439.74" y2="836.74"/><line class="cls-1" x1="1428.01" y1="824.26" x2="1442.85" y2="832.66"/><line class="cls-1" x1="1430.26" y1="820.74" x2="1445.17" y2="829.03"/><line class="cls-1" x1="1433.15" y1="816.7" x2="1448.14" y2="824.87"/><line class="cls-1" x1="1435.21" y1="813.08" x2="1450.27" y2="821.14"/><line class="cls-1" x1="1438.02" y1="809" x2="1453.16" y2="816.93"/><line class="cls-1" x1="1440.08" y1="805.38" x2="1455.29" y2="813.2"/><line class="cls-1" x1="1442.89" y1="801.3" x2="1458.18" y2="808.99"/><line class="cls-1" x1="1444.95" y1="797.68" x2="1460.31" y2="805.26"/><line class="cls-1" x1="1447.53" y1="793.48" x2="1462.97" y2="800.93"/><line class="cls-1" x1="1449.4" y1="789.77" x2="1464.9" y2="797.11"/><line class="cls-1" x1="1451.99" y1="785.57" x2="1467.56" y2="792.78"/><line class="cls-1" x1="1453.85" y1="781.87" x2="1469.49" y2="788.96"/><line class="cls-1" x1="1456.44" y1="777.67" x2="1472.15" y2="784.63"/><line class="cls-1" x1="1458.21" y1="773.93" x2="1473.99" y2="780.77"/><line class="cls-1" x1="1460.57" y1="769.62" x2="1476.41" y2="776.33"/><line class="cls-1" x1="1462.24" y1="765.83" x2="1478.14" y2="772.43"/><line class="cls-1" x1="1464.6" y1="761.52" x2="1480.57" y2="767.98"/><line class="cls-1" x1="1466.26" y1="757.74" x2="1482.29" y2="764.08"/><line class="cls-1" x1="1468.62" y1="753.43" x2="1484.71" y2="759.63"/><line class="cls-1" x1="1470.11" y1="749.58" x2="1486.25" y2="755.67"/><line class="cls-1" x1="1472.23" y1="745.17" x2="1488.44" y2="751.12"/><line class="cls-1" x1="1473.69" y1="741.32" x2="1489.95" y2="747.15"/><line class="cls-1" x1="1475.81" y1="736.91" x2="1492.13" y2="742.6"/><line class="cls-1" x1="1477.27" y1="733.06" x2="1493.64" y2="738.63"/><line class="cls-1" x1="1479.34" y1="728.63" x2="1495.77" y2="734.06"/><line class="cls-1" x1="1480.59" y1="724.71" x2="1497.06" y2="730.02"/><line class="cls-1" x1="1482.47" y1="720.21" x2="1499" y2="725.38"/><line class="cls-1" x1="1483.72" y1="716.3" x2="1500.29" y2="721.35"/><line class="cls-1" x1="1485.6" y1="711.8" x2="1502.23" y2="716.7"/><line class="cls-1" x1="1486.85" y1="707.89" x2="1503.52" y2="712.67"/><line class="cls-1" x1="1488.6" y1="703.34" x2="1505.32" y2="707.99"/><line class="cls-1" x1="1489.64" y1="699.38" x2="1506.39" y2="703.9"/><line class="cls-1" x1="1491.27" y1="694.8" x2="1508.07" y2="699.17"/><line class="cls-1" x1="1492.3" y1="690.83" x2="1509.14" y2="695.09"/><line class="cls-1" x1="1493.94" y1="686.25" x2="1510.82" y2="690.36"/><line class="cls-1" x1="1494.97" y1="682.29" x2="1511.89" y2="686.28"/><line class="cls-1" x1="1496.4" y1="677.66" x2="1513.36" y2="681.5"/><line class="cls-1" x1="1497.22" y1="673.65" x2="1514.21" y2="677.37"/><line class="cls-1" x1="1498.6" y1="669" x2="1515.63" y2="672.57"/><line class="cls-1" x1="1499.41" y1="665" x2="1516.47" y2="668.44"/><line class="cls-1" x1="1500.8" y1="660.35" x2="1517.89" y2="663.65"/><line class="cls-1" x1="1501.6" y1="656.34" x2="1518.72" y2="659.52"/><line class="cls-1" x1="1502.72" y1="651.64" x2="1519.87" y2="654.67"/><line class="cls-1" x1="1503.31" y1="647.6" x2="1520.49" y2="650.51"/><line class="cls-1" x1="1504.43" y1="642.89" x2="1521.65" y2="645.65"/><line class="cls-1" x1="1505.03" y1="638.86" x2="1522.26" y2="641.49"/><line class="cls-1" x1="1506.15" y1="634.15" x2="1523.42" y2="636.64"/><line class="cls-1" x1="1506.68" y1="630.11" x2="1523.96" y2="632.47"/><line class="cls-1" x1="1507.54" y1="625.36" x2="1524.85" y2="627.57"/><line class="cls-1" x1="1507.91" y1="621.3" x2="1525.23" y2="623.38"/><line class="cls-1" x1="1508.77" y1="616.54" x2="1526.12" y2="618.49"/><line class="cls-1" x1="1509.14" y1="612.48" x2="1526.5" y2="614.3"/><line class="cls-1" x1="1510" y1="607.73" x2="1527.38" y2="609.4"/><line class="cls-1" x1="1510.26" y1="603.66" x2="1527.66" y2="605.21"/><line class="cls-1" x1="1510.85" y1="598.88" x2="1528.27" y2="600.28"/><line class="cls-1" x1="1511" y1="594.81" x2="1528.42" y2="596.08"/><line class="cls-1" x1="1511.6" y1="590.02" x2="1529.03" y2="591.15"/><line class="cls-1" x1="1511.74" y1="585.95" x2="1529.18" y2="586.95"/><line class="cls-1" x1="1512.34" y1="581.16" x2="1529.79" y2="582.01"/><line class="cls-1" x1="1512.34" y1="577.09" x2="1529.8" y2="577.81"/><line class="cls-1" x1="1512.67" y1="572.28" x2="1530.14" y2="572.86"/><line class="cls-1" x1="1512.59" y1="568.21" x2="1530.06" y2="568.66"/><line class="cls-1" x1="1512.92" y1="563.4" x2="1530.39" y2="563.71"/><line class="cls-1" x1="1512.83" y1="559.33" x2="1530.31" y2="559.51"/><line class="cls-1" x1="1513.16" y1="554.52" x2="1530.64" y2="554.55"/><ellipse class="cls-2" cx="949.53" cy="553.09" rx="607.47" ry="552.25"/><ellipse class="cls-3" cx="949.53" cy="553.22" rx="582.03" ry="529.12"/><line class="cls-2" x1="1530.65" y1="521.98" x2="1555.92" y2="520.65"/><line class="cls-2" x1="1528.2" y1="495.24" x2="1553.37" y2="492.75"/><line class="cls-2" x1="1523.16" y1="463.02" x2="1548.11" y2="459.13"/><line class="cls-2" x1="1517.44" y1="436.71" x2="1542.13" y2="431.67"/><line class="cls-2" x1="1508.52" y1="405.2" x2="1532.83" y2="398.77"/><line class="cls-2" x1="1499.58" y1="379.64" x2="1523.49" y2="372.1"/><line class="cls-2" x1="1486.91" y1="349.2" x2="1510.26" y2="340.33"/><line class="cls-2" x1="1474.86" y1="324.71" x2="1497.69" y2="314.77"/><line class="cls-2" x1="1458.33" y1="295.85" x2="1480.44" y2="284.65"/><line class="cls-2" x1="1443.29" y1="272.76" x2="1464.75" y2="260.55"/><line class="cls-2" x1="1423.35" y1="245.73" x2="1443.94" y2="232.35"/><line class="cls-2" x1="1405.59" y1="224.31" x2="1425.42" y2="210"/><line class="cls-2" x1="1382.55" y1="199.39" x2="1401.38" y2="184.01"/><line class="cls-2" x1="1362.3" y1="179.88" x2="1380.24" y2="163.65"/><line class="cls-2" x1="1336.22" y1="157.57" x2="1353.05" y2="140.37"/><line class="cls-2" x1="1313.67" y1="140.26" x2="1329.52" y2="122.32"/><line class="cls-2" x1="1285.06" y1="120.69" x2="1299.67" y2="101.9"/><line class="cls-2" x1="1260.55" y1="105.76" x2="1274.09" y2="86.32"/><line class="cls-2" x1="1229.78" y1="89.13" x2="1241.98" y2="68.97"/><line class="cls-2" x1="1203.58" y1="76.78" x2="1214.64" y2="56.08"/><line class="cls-2" x1="1170.89" y1="63.53" x2="1180.52" y2="42.25"/><line class="cls-2" x1="1143.32" y1="53.97" x2="1151.74" y2="32.27"/><line class="cls-2" x1="1109.2" y1="44.14" x2="1116.13" y2="22.01"/><line class="cls-2" x1="1080.62" y1="37.46" x2="1086.3" y2="15.04"/><line class="cls-2" x1="1045.52" y1="31.11" x2="1049.66" y2="8.41"/><line class="cls-2" x1="1016.29" y1="27.39" x2="1019.16" y2="4.53"/><line class="cls-2" x1="980.62" y1="24.59" x2="981.95" y2="1.61"/><line class="cls-2" x1="949.49" y1="23.86" x2="949.56" y2="0.85"/><line class="cls-2" x1="915.31" y1="24.81" x2="913.84" y2="1.83"/><line class="cls-2" x1="885.89" y1="27.03" x2="883.16" y2="4.15"/><line class="cls-2" x1="850.45" y1="31.61" x2="846.17" y2="8.93"/><line class="cls-2" x1="821.51" y1="36.82" x2="815.96" y2="14.37"/><line class="cls-2" x1="786.84" y1="44.92" x2="779.78" y2="22.82"/><line class="cls-2" x1="758.73" y1="53.05" x2="750.43" y2="31.31"/><line class="cls-2" x1="725.25" y1="64.57" x2="715.49" y2="43.34"/><line class="cls-2" x1="698.31" y1="75.52" x2="687.38" y2="54.77"/><line class="cls-2" x1="666.56" y1="90.56" x2="654.24" y2="70.46"/><line class="cls-2" x1="641.17" y1="104.22" x2="627.74" y2="84.71"/><line class="cls-2" x1="611.44" y1="122.35" x2="596.72" y2="103.63"/><line class="cls-2" x1="587.87" y1="138.49" x2="572.13" y2="120.47"/><line class="cls-2" x1="560.46" y1="159.44" x2="543.54" y2="142.33"/><line class="cls-2" x1="538.99" y1="177.86" x2="521.14" y2="161.54"/><line class="cls-2" x1="514.45" y1="201.56" x2="495.54" y2="186.26"/><line class="cls-2" x1="495.42" y1="222.06" x2="475.68" y2="207.65"/><line class="cls-2" x1="473.89" y1="248.07" x2="453.22" y2="234.78"/><line class="cls-2" x1="457.47" y1="270.36" x2="436.09" y2="258.04"/><line class="cls-2" x1="439.17" y1="298.33" x2="417" y2="287.23"/><line class="cls-2" x1="425.58" y1="322.14" x2="402.81" y2="312.09"/><line class="cls-2" x1="411.01" y1="351.86" x2="387.6" y2="343.11"/><line class="cls-2" x1="400.5" y1="376.93" x2="376.63" y2="369.27"/><line class="cls-2" x1="389.68" y1="407.95" x2="365.34" y2="401.65"/><line class="cls-2" x1="382.34" y1="433.92" x2="357.67" y2="428.76"/><line class="cls-2" x1="375.35" y1="465.84" x2="350.38" y2="462.07"/><line class="cls-2" x1="371.26" y1="492.4" x2="346.11" y2="489.79"/><line class="cls-2" x1="368.18" y1="524.83" x2="342.9" y2="523.62"/><line class="cls-2" x1="367.37" y1="551.66" x2="342.06" y2="551.6"/><line class="cls-2" x1="368.42" y1="584.21" x2="343.15" y2="585.54"/><line class="cls-2" x1="370.86" y1="610.95" x2="345.7" y2="613.44"/><line class="cls-2" x1="375.9" y1="643.17" x2="350.96" y2="647.06"/><line class="cls-2" x1="381.63" y1="669.48" x2="356.93" y2="674.52"/><line class="cls-2" x1="390.54" y1="700.99" x2="366.24" y2="707.41"/><line class="cls-2" x1="399.49" y1="726.55" x2="375.57" y2="734.09"/><line class="cls-2" x1="412.16" y1="756.98" x2="388.81" y2="765.86"/><line class="cls-2" x1="424.21" y1="781.48" x2="401.38" y2="791.42"/><line class="cls-2" x1="440.74" y1="810.34" x2="418.63" y2="821.54"/><line class="cls-2" x1="455.77" y1="833.43" x2="434.31" y2="845.63"/><line class="cls-2" x1="475.71" y1="860.45" x2="455.12" y2="873.84"/><line class="cls-2" x1="493.47" y1="881.88" x2="473.65" y2="896.19"/><line class="cls-2" x1="516.51" y1="906.79" x2="497.69" y2="922.18"/><line class="cls-2" x1="536.77" y1="926.31" x2="518.82" y2="942.54"/><line class="cls-2" x1="562.84" y1="948.62" x2="546.02" y2="965.82"/><line class="cls-2" x1="585.39" y1="965.93" x2="569.55" y2="983.87"/><line class="cls-2" x1="614" y1="985.5" x2="599.39" y2="1004.29"/><line class="cls-2" x1="638.52" y1="1000.42" x2="624.98" y2="1019.86"/><line class="cls-2" x1="669.29" y1="1017.06" x2="657.09" y2="1037.22"/><line class="cls-2" x1="695.49" y1="1029.41" x2="684.43" y2="1050.11"/><line class="cls-2" x1="728.18" y1="1042.66" x2="718.55" y2="1063.94"/><line class="cls-2" x1="755.75" y1="1052.22" x2="747.33" y2="1073.92"/><line class="cls-2" x1="789.87" y1="1062.05" x2="782.94" y2="1084.18"/><line class="cls-2" x1="818.44" y1="1068.73" x2="812.77" y2="1091.15"/><line class="cls-2" x1="853.55" y1="1075.08" x2="849.4" y2="1097.78"/><line class="cls-2" x1="882.77" y1="1078.8" x2="879.9" y2="1101.66"/><line class="cls-2" x1="918.45" y1="1081.6" x2="917.12" y2="1104.58"/><line class="cls-2" x1="949.56" y1="1082.33" x2="949.49" y2="1105.34"/><line class="cls-2" x1="983.76" y1="1081.38" x2="985.22" y2="1104.35"/><line class="cls-2" x1="1013.17" y1="1079.16" x2="1015.91" y2="1102.03"/><line class="cls-2" x1="1048.61" y1="1074.58" x2="1052.89" y2="1097.26"/><line class="cls-2" x1="1077.56" y1="1069.37" x2="1083.1" y2="1091.82"/><line class="cls-2" x1="1112.22" y1="1061.27" x2="1119.28" y2="1083.36"/><line class="cls-2" x1="1140.34" y1="1053.13" x2="1148.63" y2="1074.88"/><line class="cls-2" x1="1173.81" y1="1041.61" x2="1183.57" y2="1062.85"/><line class="cls-2" x1="1200.75" y1="1030.66" x2="1211.69" y2="1051.42"/><line class="cls-2" x1="1232.5" y1="1015.63" x2="1244.83" y2="1035.73"/><line class="cls-2" x1="1257.9" y1="1001.97" x2="1271.33" y2="1021.47"/><line class="cls-2" x1="1287.63" y1="983.84" x2="1302.35" y2="1002.56"/><line class="cls-2" x1="1311.2" y1="967.69" x2="1326.94" y2="985.72"/><line class="cls-2" x1="1338.6" y1="946.75" x2="1355.53" y2="963.86"/><line class="cls-2" x1="1360.07" y1="928.33" x2="1377.92" y2="944.65"/><line class="cls-2" x1="1384.61" y1="904.63" x2="1403.53" y2="919.93"/><line class="cls-2" x1="1403.65" y1="884.13" x2="1423.39" y2="898.54"/><line class="cls-2" x1="1425.17" y1="858.12" x2="1445.85" y2="871.4"/><line class="cls-2" x1="1441.6" y1="835.83" x2="1462.98" y2="848.15"/><line class="cls-2" x1="1459.89" y1="807.86" x2="1482.07" y2="818.95"/><line class="cls-2" x1="1473.48" y1="784.05" x2="1496.25" y2="794.1"/><line class="cls-2" x1="1488.06" y1="754.32" x2="1511.47" y2="763.08"/><line class="cls-2" x1="1498.57" y1="729.26" x2="1522.44" y2="736.92"/><line class="cls-2" x1="1509.38" y1="698.24" x2="1533.73" y2="704.54"/><line class="cls-2" x1="1516.73" y1="672.27" x2="1541.4" y2="677.43"/><line class="cls-2" x1="1523.72" y1="640.35" x2="1548.69" y2="644.12"/><line class="cls-2" x1="1527.81" y1="613.78" x2="1552.96" y2="616.4"/><line class="cls-2" x1="1530.89" y1="581.36" x2="1556.17" y2="582.56"/><line class="cls-2" x1="1531.69" y1="554.52" x2="1557" y2="554.58"/><ellipse class="cls-4" cx="949.53" cy="553.22" rx="564.49" ry="513.17"/><path class="cls-5" d="M-340.31-114.59a7,7,0,0,1-5.66-5.32,11.14,11.14,0,0,0-.62-2.18h0a11.22,11.22,0,0,0-.63,2.19,7,7,0,0,1-5.68,5.31l-1.21.25a16.17,16.17,0,0,0,1.57.45,6.93,6.93,0,0,1,5.35,5.26,10.87,10.87,0,0,0,.6,2h0a11.68,11.68,0,0,0,.6-2,6.92,6.92,0,0,1,5.35-5.26c.54-.13,1.07-.28,1.57-.45Z" transform="translate(387.04 127.23)"/><path class="cls-5" d="M105-93.39a7,7,0,0,1-5.66-5.32,10.65,10.65,0,0,0-.63-2.18h0A11.25,11.25,0,0,0,98-98.7a7,7,0,0,1-5.69,5.31l-1.21.25c.5.17,1,.32,1.58.45a7,7,0,0,1,5.35,5.26,10.9,10.9,0,0,0,.59,2h0a10.17,10.17,0,0,0,.6-2,7,7,0,0,1,5.35-5.26,16.17,16.17,0,0,0,1.57-.45Z" transform="translate(387.04 127.23)"/><path class="cls-5" d="M-199.34,194.54a7,7,0,0,1-5.66-5.31,11.11,11.11,0,0,0-.63-2.18h0a11,11,0,0,0-.63,2.19,7,7,0,0,1-5.68,5.31l-1.21.24a13,13,0,0,0,1.57.45,6.94,6.94,0,0,1,5.35,5.26,11.55,11.55,0,0,0,.6,2h0a10.76,10.76,0,0,0,.6-2,6.94,6.94,0,0,1,5.35-5.26,12,12,0,0,0,1.57-.45Z" transform="translate(387.04 127.23)"/><path class="cls-5" d="M-246.29,161.23c-5.47-1.08-9.71-5-10.7-10a20.7,20.7,0,0,0-1.18-4.12h0a20.32,20.32,0,0,0-1.19,4.13c-1,5-5.26,9-10.74,10.05l-2.29.45a24.39,24.39,0,0,0,3,.85,13.13,13.13,0,0,1,10.12,9.94,19.37,19.37,0,0,0,1.13,3.85h0a20.09,20.09,0,0,0,1.12-3.85,13.14,13.14,0,0,1,10.12-9.94,24.39,24.39,0,0,0,3-.85Z" transform="translate(387.04 127.23)"/><path class="cls-5" d="M29.94,90.81c-5.47-1.08-9.71-5-10.7-10a20.89,20.89,0,0,0-1.18-4.12h0a20.32,20.32,0,0,0-1.19,4.13c-1,5-5.25,9-10.74,10l-2.29.45a24.39,24.39,0,0,0,3,.85,13.14,13.14,0,0,1,10.12,9.94,19.37,19.37,0,0,0,1.13,3.85h0a20.8,20.8,0,0,0,1.13-3.85A13.13,13.13,0,0,1,29.3,92.13a24.39,24.39,0,0,0,3-.85Z" transform="translate(387.04 127.23)"/><path class="cls-5" d="M-123.06,266.37a13.19,13.19,0,0,1-10.7-10,20.4,20.4,0,0,0-1.19-4.12h0a21,21,0,0,0-1.18,4.13c-1,5-5.26,9-10.74,10.05-1.36.26-2.29.46-2.29.46a28.6,28.6,0,0,0,3,.85,13.14,13.14,0,0,1,10.12,9.94,20.19,20.19,0,0,0,1.12,3.84h0a19.46,19.46,0,0,0,1.13-3.84,13.13,13.13,0,0,1,10.12-9.94,28.6,28.6,0,0,0,3-.85Z" transform="translate(387.04 127.23)"/><path class="cls-5" d="M-47.16,56.61c-5.46-1.08-9.7-5-10.69-10A21,21,0,0,0-59,42.44h0a21.68,21.68,0,0,0-1.19,4.13c-1,5-5.25,9-10.73,10l-2.29.46a27.91,27.91,0,0,0,3,.85,13.11,13.11,0,0,1,10.11,9.94A20.92,20.92,0,0,0-59,71.71h0a19.46,19.46,0,0,0,1.13-3.84A13.11,13.11,0,0,1-47.8,57.93a27.25,27.25,0,0,0,3-.85S-45.77,56.88-47.16,56.61Z" transform="translate(387.04 127.23)"/><path class="cls-5" d="M40.47-78.68c-9.59-1.89-17-8.83-18.77-17.61a36.24,36.24,0,0,0-2.08-7.23h0a36.93,36.93,0,0,0-2.08,7.25C15.8-87.47,8.33-80.52-1.29-78.65l-4,.8A46.6,46.6,0,0,0-.1-76.35c9.16,2.09,16,9,17.74,17.43a36,36,0,0,0,2,6.75h0a35.19,35.19,0,0,0,2-6.75c1.73-8.43,8.58-15.34,17.74-17.43a45.81,45.81,0,0,0,5.2-1.5S42.9-78.2,40.47-78.68Z" transform="translate(387.04 127.23)"/><path class="cls-5" d="M-56,193.22c-9.59-1.89-17-8.83-18.76-17.61a37,37,0,0,0-2.09-7.24h0a37.34,37.34,0,0,0-2.08,7.25c-1.74,8.81-9.21,15.76-18.83,17.63-2.39.46-4,.8-4,.8a43.84,43.84,0,0,0,5.2,1.49c9.16,2.09,16,9,17.74,17.44a35.61,35.61,0,0,0,2,6.74h0a34.87,34.87,0,0,0,2-6.74c1.73-8.44,8.58-15.35,17.74-17.44a43.84,43.84,0,0,0,5.2-1.49S-53.54,193.7-56,193.22Z" transform="translate(387.04 127.23)"/><path class="cls-5" d="M-345.06,56.61c-5.46-1.08-9.7-5-10.69-10a21,21,0,0,0-1.19-4.13h0a21.68,21.68,0,0,0-1.19,4.13c-1,5-5.25,9-10.73,10l-2.29.46a27.91,27.91,0,0,0,3,.85,13.11,13.11,0,0,1,10.11,9.94,20.92,20.92,0,0,0,1.13,3.84h0a19.46,19.46,0,0,0,1.13-3.84,13.11,13.11,0,0,1,10.11-9.94,27.25,27.25,0,0,0,3-.85S-343.67,56.88-345.06,56.61Z" transform="translate(387.04 127.23)"/><line class="cls-5" x1="296.14" y1="8.89" x2="303.34" y2="8.89"/><line class="cls-5" x1="306.62" y1="8.89" x2="313.83" y2="8.89"/><line class="cls-5" x1="304.98" y1="0.85" x2="304.98" y2="6.95"/><line class="cls-5" x1="304.98" y1="10.83" x2="304.98" y2="16.93"/><path class="cls-5" d="M-82.06-122.94c0,4.36-.23,4.6-4.47,4.6,4.24,0,4.47.24,4.47,4.6,0-4.36.24-4.6,4.47-4.6C-81.82-118.34-82.06-118.58-82.06-122.94Z" transform="translate(387.04 127.23)"/><line class="cls-5" x1="322.42" y1="101.52" x2="335.02" y2="101.52"/><line class="cls-5" x1="340.74" y1="101.52" x2="353.33" y2="101.52"/><line class="cls-5" x1="337.88" y1="87.46" x2="337.88" y2="98.12"/><line class="cls-5" x1="337.88" y1="104.91" x2="337.88" y2="115.57"/><path class="cls-5" d="M-49.16-33.76c0,7.62-.41,8-7.81,8,7.4,0,7.81.42,7.81,8,0-7.62.41-8,7.81-8C-48.75-25.71-49.16-26.14-49.16-33.76Z" transform="translate(387.04 127.23)"/><line class="cls-5" x1="241.61" y1="254.49" x2="248.82" y2="254.49"/><line class="cls-5" x1="252.09" y1="254.49" x2="259.3" y2="254.49"/><line class="cls-5" x1="250.46" y1="246.45" x2="250.46" y2="252.55"/><line class="cls-5" x1="250.46" y1="256.43" x2="250.46" y2="262.53"/><path class="cls-5" d="M-136.58,122.66c0,4.36-.24,4.6-4.47,4.6,4.23,0,4.47.24,4.47,4.6,0-4.36.23-4.6,4.47-4.6C-136.35,127.26-136.58,127-136.58,122.66Z" transform="translate(387.04 127.23)"/><line class="cls-5" x1="447.97" y1="97.21" x2="455.18" y2="97.21"/><line class="cls-5" x1="458.45" y1="97.21" x2="465.66" y2="97.21"/><line class="cls-5" x1="456.82" y1="89.17" x2="456.82" y2="95.27"/><line class="cls-5" x1="456.82" y1="99.16" x2="456.82" y2="105.26"/><path class="cls-5" d="M69.78-34.62c0,4.36-.24,4.61-4.47,4.61,4.23,0,4.47.24,4.47,4.6,0-4.36.23-4.6,4.47-4.6C70-30,69.78-30.26,69.78-34.62Z" transform="translate(387.04 127.23)"/><line class="cls-5" x1="564.43" y1="28.89" x2="571.63" y2="28.89"/><line class="cls-5" x1="574.91" y1="28.89" x2="582.12" y2="28.89"/><line class="cls-5" x1="573.27" y1="20.84" x2="573.27" y2="26.94"/><line class="cls-5" x1="573.27" y1="30.83" x2="573.27" y2="36.93"/><path class="cls-5" d="M186.23-102.95c0,4.36-.23,4.61-4.46,4.61,4.23,0,4.46.24,4.46,4.6,0-4.36.24-4.6,4.47-4.6C186.47-98.34,186.23-98.59,186.23-102.95Z" transform="translate(387.04 127.23)"/><line class="cls-5" x1="54.09" y1="367.37" x2="66.69" y2="367.37"/><line class="cls-5" x1="72.41" y1="367.37" x2="85" y2="367.37"/><line class="cls-5" x1="69.55" y1="353.32" x2="69.55" y2="363.98"/><line class="cls-5" x1="69.55" y1="370.76" x2="69.55" y2="381.42"/><path class="cls-5" d="M-317.49,232.1c0,7.62-.41,8-7.81,8,7.4,0,7.81.43,7.81,8,0-7.61.41-8,7.81-8C-317.08,240.14-317.49,239.72-317.49,232.1Z" transform="translate(387.04 127.23)"/><line class="cls-5" x1="28.85" y1="276.07" x2="41.45" y2="276.07"/><line class="cls-5" x1="47.17" y1="276.07" x2="59.76" y2="276.07"/><line class="cls-5" x1="44.31" y1="262.02" x2="44.31" y2="272.68"/><line class="cls-5" x1="44.31" y1="279.47" x2="44.31" y2="290.12"/><path class="cls-5" d="M-342.73,140.8c0,7.62-.41,8-7.81,8,7.4,0,7.81.43,7.81,8,0-7.62.41-8,7.81-8C-342.32,148.84-342.73,148.42-342.73,140.8Z" transform="translate(387.04 127.23)"/><ellipse class="cls-5" cx="166.5" cy="116.78" rx="48.4" ry="44"/><line class="cls-5" x1="166.5" y1="61.34" x2="166.5" y2="5.14"/><line class="cls-5" x1="166.5" y1="228.42" x2="166.5" y2="172.21"/><line class="cls-5" x1="227.48" y1="116.78" x2="289.3" y2="116.78"/><line class="cls-5" x1="43.7" y1="116.78" x2="105.52" y2="116.78"/><line class="cls-5" x1="209.62" y1="77.58" x2="240.49" y2="49.51"/><line class="cls-5" x1="92.51" y1="184.04" x2="123.38" y2="155.98"/><line class="cls-5" x1="209.62" y1="155.98" x2="240.49" y2="184.04"/><line class="cls-5" x1="92.51" y1="49.51" x2="123.38" y2="77.58"/><line class="cls-5" x1="189.27" y1="65.35" x2="205.56" y2="28.53"/><line class="cls-5" x1="127.44" y1="205.03" x2="143.74" y2="168.21"/><line class="cls-5" x1="223.07" y1="137.47" x2="263.58" y2="152.29"/><line class="cls-5" x1="69.43" y1="81.27" x2="109.93" y2="96.08"/><line class="cls-5" x1="222.6" y1="95.05" x2="262.77" y2="79.49"/><line class="cls-5" x1="70.24" y1="154.07" x2="110.4" y2="138.51"/><line class="cls-5" x1="190.41" y1="167.78" x2="207.52" y2="204.29"/><line class="cls-5" x1="125.48" y1="29.27" x2="142.6" y2="65.78"/><line class="cls-5" x1="216.29" y1="84.77" x2="234.96" y2="72.78"/><line class="cls-5" x1="98.05" y1="160.78" x2="116.71" y2="148.78"/><line class="cls-5" x1="201.71" y1="162.04" x2="214.91" y2="179.01"/><line class="cls-5" x1="118.1" y1="54.55" x2="131.3" y2="71.52"/><line class="cls-5" x1="226.21" y1="105.52" x2="248.59" y2="101.3"/><line class="cls-5" x1="84.41" y1="132.26" x2="106.79" y2="128.04"/><line class="cls-5" x1="178.89" y1="171.06" x2="183.53" y2="191.41"/><line class="cls-5" x1="149.48" y1="42.15" x2="154.12" y2="62.5"/><line class="cls-5" x1="226.6" y1="126.15" x2="249.13" y2="129.67"/><line class="cls-5" x1="83.87" y1="103.89" x2="106.4" y2="107.4"/><line class="cls-5" x1="156.19" y1="171.42" x2="152.33" y2="191.9"/><line class="cls-5" x1="180.68" y1="41.66" x2="176.81" y2="62.14"/><line class="cls-5" x1="199.85" y1="70.36" x2="212.35" y2="52.96"/><line class="cls-5" x1="120.66" y1="180.59" x2="133.16" y2="163.19"/><line class="cls-5" x1="217.56" y1="147.09" x2="236.7" y2="158.45"/><line class="cls-5" x1="96.31" y1="75.1" x2="115.45" y2="86.47"/><path class="cls-5" d="M-189.39-10.45c0-20.89-18.63-37.83-41.61-37.83a44.35,44.35,0,0,0-24,6.92,50.77,50.77,0,0,1,34.45-13.09c26.73,0,48.4,19.7,48.4,44s-21.67,44-48.4,44A50.77,50.77,0,0,1-255,20.46a44.35,44.35,0,0,0,24,6.92C-208,27.38-189.39,10.44-189.39-10.45Z" transform="translate(387.04 127.23)"/><path class="cls-5" d="M-316,689.79a7,7,0,0,1-5.66-5.31,11.11,11.11,0,0,0-.63-2.18h0a11.11,11.11,0,0,0-.63,2.18,7,7,0,0,1-5.68,5.32l-1.21.24a12.45,12.45,0,0,0,1.57.45,6.94,6.94,0,0,1,5.35,5.26,10.44,10.44,0,0,0,.6,2h0a10.44,10.44,0,0,0,.6-2,6.94,6.94,0,0,1,5.35-5.26,13,13,0,0,0,1.57-.45Z" transform="translate(387.04 127.23)"/><path class="cls-5" d="M-372.38,634.6a7,7,0,0,1-5.66-5.31,11.22,11.22,0,0,0-.63-2.19h0a11.43,11.43,0,0,0-.63,2.19,7,7,0,0,1-5.68,5.32l-1.21.24a15.06,15.06,0,0,0,1.57.45,6.92,6.92,0,0,1,5.35,5.26,11.18,11.18,0,0,0,.6,2h0a10.44,10.44,0,0,0,.6-2,6.93,6.93,0,0,1,5.35-5.26,13.77,13.77,0,0,0,1.57-.45Z" transform="translate(387.04 127.23)"/><path class="cls-5" d="M-77.24,601.15a7,7,0,0,1-5.66-5.32,11.34,11.34,0,0,0-.62-2.18h0a11.22,11.22,0,0,0-.63,2.19,7,7,0,0,1-5.68,5.32l-1.21.24a16.17,16.17,0,0,0,1.57.45,6.93,6.93,0,0,1,5.35,5.26,10.87,10.87,0,0,0,.6,2h0a10.9,10.9,0,0,0,.59-2,6.94,6.94,0,0,1,5.36-5.26c.54-.13,1.07-.28,1.57-.45Z" transform="translate(387.04 127.23)"/><path class="cls-5" d="M-345.6,953.35a7,7,0,0,1-5.66-5.31,10.29,10.29,0,0,0-.63-2.18h0a11.14,11.14,0,0,0-.62,2.18,7,7,0,0,1-5.68,5.32l-1.21.24a12,12,0,0,0,1.57.45,7,7,0,0,1,5.35,5.26,10.46,10.46,0,0,0,.59,2h0a9.78,9.78,0,0,0,.6-2,7,7,0,0,1,5.35-5.26,12,12,0,0,0,1.57-.45Z" transform="translate(387.04 127.23)"/><path class="cls-5" d="M133.64,959a7,7,0,0,1-5.66-5.31,10.29,10.29,0,0,0-.63-2.18h0a11.14,11.14,0,0,0-.62,2.18A7,7,0,0,1,121,959l-1.21.24a12.61,12.61,0,0,0,1.58.45,7,7,0,0,1,5.35,5.26,10.46,10.46,0,0,0,.59,2h0a9.78,9.78,0,0,0,.6-2,7,7,0,0,1,5.35-5.26,12,12,0,0,0,1.57-.45Z" transform="translate(387.04 127.23)"/><path class="cls-5" d="M-61.9,953a13.19,13.19,0,0,1-10.69-10,21.07,21.07,0,0,0-1.19-4.12h0A21.68,21.68,0,0,0-75,943c-1,5-5.25,9-10.73,10l-2.29.46a27.91,27.91,0,0,0,3,.85,13.11,13.11,0,0,1,10.11,9.94,20.92,20.92,0,0,0,1.13,3.84h0a19.46,19.46,0,0,0,1.13-3.84,13.11,13.11,0,0,1,10.11-9.94,27.25,27.25,0,0,0,3-.85Z" transform="translate(387.04 127.23)"/><path class="cls-5" d="M-.3,790.66c-5.47-1.08-9.71-5-10.69-10a21.68,21.68,0,0,0-1.19-4.13h0a21.29,21.29,0,0,0-1.19,4.14c-1,5-5.25,9-10.73,10l-2.29.46a23.89,23.89,0,0,0,3,.85,13.11,13.11,0,0,1,10.11,9.94,20.8,20.8,0,0,0,1.13,3.85h0A20.8,20.8,0,0,0-11,801.92,13.11,13.11,0,0,1-.94,792a23.89,23.89,0,0,0,3-.85S1.09,790.93-.3,790.66Z" transform="translate(387.04 127.23)"/><path class="cls-5" d="M-246.29,492.68c-5.47-1.08-9.71-5-10.7-10a21,21,0,0,0-1.18-4.13h0a20.32,20.32,0,0,0-1.19,4.13c-1,5-5.25,9-10.74,10.05l-2.29.46a28.6,28.6,0,0,0,3,.85,13.13,13.13,0,0,1,10.12,9.94,19.46,19.46,0,0,0,1.13,3.84h0a20.19,20.19,0,0,0,1.12-3.84A13.14,13.14,0,0,1-246.93,494a28.6,28.6,0,0,0,3-.85Z" transform="translate(387.04 127.23)"/><path class="cls-5" d="M-296.65,577.6c-9.59-1.88-17-8.83-18.76-17.61a36.44,36.44,0,0,0-2.08-7.23h0a36.45,36.45,0,0,0-2.08,7.25c-1.74,8.8-9.22,15.75-18.84,17.62-2.39.47-4,.81-4,.81a46.59,46.59,0,0,0,5.21,1.49,23,23,0,0,1,17.74,17.44,36.06,36.06,0,0,0,2,6.74h0a36.06,36.06,0,0,0,2-6.74,23,23,0,0,1,17.74-17.44,46.59,46.59,0,0,0,5.21-1.49S-294.22,578.08-296.65,577.6Z" transform="translate(387.04 127.23)"/><line class="cls-5" x1="138.4" y1="1080.71" x2="150.99" y2="1080.71"/><line class="cls-5" x1="156.71" y1="1080.71" x2="169.31" y2="1080.71"/><line class="cls-5" x1="153.85" y1="1066.66" x2="153.85" y2="1077.31"/><line class="cls-5" x1="153.85" y1="1084.1" x2="153.85" y2="1094.76"/><path class="cls-5" d="M-233.19,945.44c0,7.61-.41,8-7.8,8,7.39,0,7.8.42,7.8,8,0-7.62.42-8,7.81-8C-232.77,953.48-233.19,953.05-233.19,945.44Z" transform="translate(387.04 127.23)"/><line class="cls-5" x1="31.71" y1="904.31" x2="44.31" y2="904.31"/><line class="cls-5" x1="50.03" y1="904.31" x2="62.62" y2="904.31"/><line class="cls-5" x1="47.17" y1="890.26" x2="47.17" y2="900.92"/><line class="cls-5" x1="47.17" y1="907.7" x2="47.17" y2="918.36"/><path class="cls-5" d="M-339.87,769c0,7.62-.41,8-7.81,8,7.4,0,7.81.42,7.81,8,0-7.62.41-8,7.81-8C-339.46,777.08-339.87,776.66-339.87,769Z" transform="translate(387.04 127.23)"/><line class="cls-5" x1="408.77" y1="1051.42" x2="421.36" y2="1051.42"/><line class="cls-5" x1="427.08" y1="1051.42" x2="439.68" y2="1051.42"/><line class="cls-5" x1="424.22" y1="1037.37" x2="424.22" y2="1048.03"/><line class="cls-5" x1="424.22" y1="1054.81" x2="424.22" y2="1065.47"/><path class="cls-5" d="M37.19,916.15c0,7.61-.41,8-7.81,8,7.4,0,7.81.42,7.81,8,0-7.62.41-8,7.81-8C37.6,924.19,37.19,923.76,37.19,916.15Z" transform="translate(387.04 127.23)"/><line class="cls-5" x1="257.58" y1="830.49" x2="283.43" y2="830.49"/><line class="cls-5" x1="295.17" y1="830.49" x2="321.03" y2="830.49"/><line class="cls-5" x1="289.3" y1="801.65" x2="289.3" y2="823.53"/><line class="cls-5" x1="289.3" y1="837.45" x2="289.3" y2="859.33"/><path class="cls-5" d="M-97.73,686.76c0,15.63-.85,16.5-16,16.5,15.18,0,16,.87,16,16.51,0-15.64.84-16.51,16-16.51C-96.89,703.26-97.73,702.39-97.73,686.76Z" transform="translate(387.04 127.23)"/><path class="cls-5" d="M-106.73,820.42c-2.08-7.57-16.33-29.88-20.46-37.5s-26.89-28.66-34.81-32.64-35.87-23-35.87-23,3.42-2.14,9.82-5.68,7.29-9.84,3.63-11.68-27.33,7-27.33,7l-4.43-3.19s11-2,19.5-8.54,8.83-11.48,6.07-12.62-21.68,3.83-27.11,4.48c-4.87.58-13.55,6-15.29,7.16a16.41,16.41,0,0,0-3.27-1c-5-1.32-8.34.64-9.91,3.22s.86,6.46.86,6.46l-10,9,8.51-23.2s8.5-6.59,15.83-12.55,10.09-18.81,4.58-18.91-27,13.93-29.57,15.53-10.43,17.19-10.43,17.19-3.74-18.75-12.63-29-12.22-3.47-12.22-3.47l13.45,55.18,25.28,64a26.32,26.32,0,0,0,12.83,13.68l31.46,15.78c6.64,3.33,30.4,18,44.59,26.56,2.55,1.54-3.76,13.25-11.2,25.29-9.64,15.6-3.36,35.35,13.87,44h0c22.75,11.41,50.84-2.53,52.59-26.1C-106.29,858.11-104.68,827.88-106.73,820.42Zm-127.5-85c-.35.78-1.47,5-1.47,5s-4.43-3.7-2.39-5.89,5.19-5.95,5.19-5.95l3.36,1.69S-233.88,734.62-234.23,735.4Zm15.78,17.67-1-6.64,4-5.31,18.54,14.07S-208.59,756.93-218.45,753.07Z" transform="translate(387.04 127.23)"/><path class="cls-5" d="M-197.87,727.24-209,732.5l-10.44,13.93,3,19.94s58.81,21.67,72.61,48" transform="translate(387.04 127.23)"/><path class="cls-5" d="M-241.23,777.08s4.64-37.8,7-41.68,17.61-16.75,22.48-18.49" transform="translate(387.04 127.23)"/><path class="cls-5" d="M-233.32,704.4l-12,8.44-10,9-2.83,2.47a6.76,6.76,0,0,0-2.38,5.38l1.17,26.77" transform="translate(387.04 127.23)"/><line class="cls-5" x1="120.67" y1="827.11" x2="112.65" y2="840.32"/><polyline class="cls-5" points="170.86 840.95 164.16 843.92 154.14 855.83"/><line class="cls-5" x1="167.13" y1="750.91" x2="154.85" y2="762.08"/><line class="cls-5" x1="225.37" y1="697.96" x2="213.1" y2="709.12"/><line class="cls-5" x1="213.09" y1="750.91" x2="225.37" y2="762.08"/><line class="cls-5" x1="154.85" y1="697.96" x2="167.13" y2="709.13"/><path class="cls-5" d="M-244.48,602.79s12.81-2.71,24.76-4.68a21.35,21.35,0,0,0,9.46-4,48.82,48.82,0,0,1-6.37-9.19h0a54.88,54.88,0,0,1,9.95,5.68,17.63,17.63,0,0,0,3.67-8.85c1.09-9.71,2.94-20.66,6.08-27.9,3.15,7.25,5,18.22,6.09,27.94a17.66,17.66,0,0,0,4.11,9.39c4.59-3,9.5-6.26,9.5-6.26-1.18,2.47-4.08,6.13-6.54,9.09a21.2,21.2,0,0,0,9.65,4.18c11.84,2,24.75,4.64,24.75,4.64A114.48,114.48,0,0,1-173,608a22.09,22.09,0,0,0-10.19,4,46.38,46.38,0,0,1,6,8.71,53.06,53.06,0,0,1-9.55-5.41,17.88,17.88,0,0,0-4.16,9.46c-1.1,9.48-2.94,20-6,27-3-7-4.88-17.54-6-27a17.85,17.85,0,0,0-4.29-9.61,58.35,58.35,0,0,1-9.43,5.56s3.38-4.2,6.57-8.28A22,22,0,0,0-220.84,608,114.48,114.48,0,0,1-244.48,602.79Z" transform="translate(387.04 127.23)"/><path class="cls-5" d="M-57.21,865.18a35.74,35.74,0,0,0,4,1.15,17.62,17.62,0,0,1,13.59,13.35,26.26,26.26,0,0,0,1.52,5.17h0a27,27,0,0,0,1.51-5.17A17.63,17.63,0,0,1-23,866.33a35.74,35.74,0,0,0,4-1.15s-1.25-.26-3.07-.61c-7.37-1.43-13.1-6.76-14.43-13.5a28.53,28.53,0,0,0-1.59-5.55h0a27.72,27.72,0,0,0-1.6,5.54c-1.33,6.72-7,12-14.37,13.49C-55.94,864.91-57.21,865.18-57.21,865.18Z" transform="translate(387.04 127.23)"/><ellipse class="cls-5" cx="91.44" cy="998.14" rx="29.63" ry="30.52"/><path class="cls-5" d="M1464.07-114.34a16.17,16.17,0,0,0,1.57.45,7,7,0,0,1,5.35,5.26,10.9,10.9,0,0,0,.59,2h0a10.17,10.17,0,0,0,.6-2,7,7,0,0,1,5.35-5.26,16.17,16.17,0,0,0,1.57-.45l-1.21-.25a7,7,0,0,1-5.68-5.31,10.57,10.57,0,0,0-.63-2.19h0a11.14,11.14,0,0,0-.62,2.18,7,7,0,0,1-5.66,5.32C1464.56-114.45,1464.07-114.34,1464.07-114.34Z" transform="translate(387.04 127.23)"/><path class="cls-5" d="M1018.81-93.14a16.17,16.17,0,0,0,1.57.45,6.93,6.93,0,0,1,5.35,5.26,10.87,10.87,0,0,0,.6,2h0a11.68,11.68,0,0,0,.6-2,6.92,6.92,0,0,1,5.35-5.26c.54-.13,1.07-.28,1.57-.45l-1.21-.25A7,7,0,0,1,1027-98.7a11.22,11.22,0,0,0-.63-2.19h0a11.32,11.32,0,0,0-.63,2.18,7,7,0,0,1-5.66,5.32Z" transform="translate(387.04 127.23)"/><path class="cls-5" d="M1323.1,194.79a13,13,0,0,0,1.57.45,6.94,6.94,0,0,1,5.35,5.26,11.55,11.55,0,0,0,.6,2h0a10.76,10.76,0,0,0,.6-2,6.94,6.94,0,0,1,5.35-5.26,12,12,0,0,0,1.57-.45l-1.21-.24a7,7,0,0,1-5.68-5.31,11,11,0,0,0-.63-2.19h0a11.11,11.11,0,0,0-.63,2.18,7,7,0,0,1-5.66,5.31Z" transform="translate(387.04 127.23)"/><path class="cls-5" d="M1369,161.7a23.73,23.73,0,0,0,3,.85,13.13,13.13,0,0,1,10.12,9.94,19.37,19.37,0,0,0,1.13,3.85h0a20.8,20.8,0,0,0,1.13-3.85,13.11,13.11,0,0,1,10.11-9.94,24.39,24.39,0,0,0,3-.85l-2.29-.45c-5.48-1.07-9.75-5-10.74-10.05a21,21,0,0,0-1.18-4.13h0a20.21,20.21,0,0,0-1.19,4.12c-1,5-5.23,9-10.69,10C1369.9,161.5,1369,161.7,1369,161.7Z" transform="translate(387.04 127.23)"/><path class="cls-5" d="M1092.72,91.28a24.39,24.39,0,0,0,3,.85,13.14,13.14,0,0,1,10.12,9.94,19.37,19.37,0,0,0,1.13,3.85h0a20.8,20.8,0,0,0,1.13-3.85,13.13,13.13,0,0,1,10.11-9.94,24.39,24.39,0,0,0,3-.85l-2.29-.45c-5.48-1.07-9.75-5-10.74-10a21,21,0,0,0-1.18-4.13h0a20.21,20.21,0,0,0-1.19,4.12c-1,5-5.23,9-10.69,10Z" transform="translate(387.04 127.23)"/><path class="cls-5" d="M1245.73,266.85a27.72,27.72,0,0,0,3,.85,13.11,13.11,0,0,1,10.12,9.94,19.46,19.46,0,0,0,1.13,3.84h0a20.92,20.92,0,0,0,1.13-3.84,13.11,13.11,0,0,1,10.11-9.94,28.6,28.6,0,0,0,3-.85s-.93-.2-2.29-.46c-5.48-1.07-9.74-5-10.74-10.05a21,21,0,0,0-1.18-4.13h0a20.4,20.4,0,0,0-1.19,4.12,13.19,13.19,0,0,1-10.69,10Z" transform="translate(387.04 127.23)"/><path class="cls-5" d="M1169.82,57.08a27.91,27.91,0,0,0,3,.85,13.11,13.11,0,0,1,10.11,9.94,20.92,20.92,0,0,0,1.13,3.84h0a20.16,20.16,0,0,0,1.13-3.84,13.11,13.11,0,0,1,10.11-9.94,27.25,27.25,0,0,0,3-.85l-2.28-.46c-5.49-1.06-9.75-5-10.74-10a21,21,0,0,0-1.19-4.13h0a21.68,21.68,0,0,0-1.19,4.13c-1,5-5.22,9-10.69,10C1170.76,56.88,1169.82,57.08,1169.82,57.08Z" transform="translate(387.04 127.23)"/><path class="cls-5" d="M1080.44-77.85a46,46,0,0,0,5.21,1.5c9.15,2.09,16,9,17.74,17.43a34.52,34.52,0,0,0,2,6.75h0a36,36,0,0,0,2-6.75c1.74-8.43,8.58-15.34,17.74-17.43a46.6,46.6,0,0,0,5.21-1.5l-4-.8c-9.62-1.87-17.1-8.82-18.84-17.62a36.26,36.26,0,0,0-2.08-7.25h0a36.24,36.24,0,0,0-2.08,7.23c-1.74,8.78-9.18,15.72-18.76,17.61C1082.09-78.2,1080.44-77.85,1080.44-77.85Z" transform="translate(387.04 127.23)"/><path class="cls-5" d="M1176.88,194.05a43.47,43.47,0,0,0,5.21,1.49c9.15,2.09,16,9,17.74,17.44a34.2,34.2,0,0,0,2,6.74h0a35.61,35.61,0,0,0,2-6.74,23,23,0,0,1,17.74-17.44,44.56,44.56,0,0,0,5.21-1.49s-1.63-.34-4-.8c-9.63-1.87-17.1-8.82-18.84-17.63a36.65,36.65,0,0,0-2.08-7.25h0a36.35,36.35,0,0,0-2.08,7.24c-1.74,8.78-9.18,15.72-18.76,17.61C1178.53,193.7,1176.88,194.05,1176.88,194.05Z" transform="translate(387.04 127.23)"/><path class="cls-5" d="M1467.72,57.08a27.91,27.91,0,0,0,3,.85,13.11,13.11,0,0,1,10.11,9.94,20.92,20.92,0,0,0,1.13,3.84h0a20.16,20.16,0,0,0,1.13-3.84,13.11,13.11,0,0,1,10.11-9.94,27.25,27.25,0,0,0,3-.85l-2.28-.46c-5.49-1.06-9.75-5-10.74-10a21,21,0,0,0-1.19-4.13h0a21.68,21.68,0,0,0-1.19,4.13c-1,5-5.22,9-10.69,10C1468.66,56.88,1467.72,57.08,1467.72,57.08Z" transform="translate(387.04 127.23)"/><line class="cls-5" x1="1602.93" y1="8.89" x2="1595.72" y2="8.89"/><line class="cls-5" x1="1592.45" y1="8.89" x2="1585.24" y2="8.89"/><line class="cls-5" x1="1594.09" y1="0.85" x2="1594.09" y2="6.95"/><line class="cls-5" x1="1594.09" y1="10.83" x2="1594.09" y2="16.93"/><path class="cls-5" d="M1207.05-122.94c0,4.36.23,4.6,4.47,4.6-4.24,0-4.47.24-4.47,4.6,0-4.36-.24-4.6-4.47-4.6C1206.81-118.34,1207.05-118.58,1207.05-122.94Z" transform="translate(387.04 127.23)"/><line class="cls-5" x1="1576.65" y1="101.52" x2="1564.05" y2="101.52"/><line class="cls-5" x1="1558.33" y1="101.52" x2="1545.74" y2="101.52"/><line class="cls-5" x1="1561.19" y1="87.46" x2="1561.19" y2="98.12"/><line class="cls-5" x1="1561.19" y1="104.91" x2="1561.19" y2="115.57"/><path class="cls-5" d="M1174.15-33.76c0,7.62.41,8,7.81,8-7.4,0-7.81.42-7.81,8,0-7.62-.41-8-7.8-8C1173.74-25.71,1174.15-26.14,1174.15-33.76Z" transform="translate(387.04 127.23)"/><line class="cls-5" x1="1657.46" y1="254.49" x2="1650.25" y2="254.49"/><line class="cls-5" x1="1646.97" y1="254.49" x2="1639.77" y2="254.49"/><line class="cls-5" x1="1648.61" y1="246.45" x2="1648.61" y2="252.55"/><line class="cls-5" x1="1648.61" y1="256.43" x2="1648.61" y2="262.53"/><path class="cls-5" d="M1261.57,122.66c0,4.36.24,4.6,4.47,4.6-4.23,0-4.47.24-4.47,4.6,0-4.36-.23-4.6-4.47-4.6C1261.34,127.26,1261.57,127,1261.57,122.66Z" transform="translate(387.04 127.23)"/><line class="cls-5" x1="1451.1" y1="97.21" x2="1443.89" y2="97.21"/><line class="cls-5" x1="1440.61" y1="97.21" x2="1433.4" y2="97.21"/><line class="cls-5" x1="1442.25" y1="89.17" x2="1442.25" y2="95.27"/><line class="cls-5" x1="1442.25" y1="99.16" x2="1442.25" y2="105.26"/><path class="cls-5" d="M1055.21-34.62c0,4.36.24,4.61,4.47,4.61-4.23,0-4.47.24-4.47,4.6,0-4.36-.23-4.6-4.47-4.6C1055-30,1055.21-30.26,1055.21-34.62Z" transform="translate(387.04 127.23)"/><line class="cls-5" x1="1334.64" y1="28.89" x2="1327.43" y2="28.89"/><line class="cls-5" x1="1324.16" y1="28.89" x2="1316.95" y2="28.89"/><line class="cls-5" x1="1325.79" y1="20.84" x2="1325.79" y2="26.94"/><line class="cls-5" x1="1325.79" y1="30.83" x2="1325.79" y2="36.93"/><path class="cls-5" d="M938.76-102.95c0,4.36.23,4.61,4.47,4.61-4.24,0-4.47.24-4.47,4.6,0-4.36-.24-4.6-4.47-4.6C938.52-98.34,938.76-98.59,938.76-102.95Z" transform="translate(387.04 127.23)"/><line class="cls-5" x1="1844.97" y1="367.37" x2="1832.38" y2="367.37"/><line class="cls-5" x1="1826.66" y1="367.37" x2="1814.06" y2="367.37"/><line class="cls-5" x1="1829.52" y1="353.32" x2="1829.52" y2="363.98"/><line class="cls-5" x1="1829.52" y1="370.76" x2="1829.52" y2="381.42"/><path class="cls-5" d="M1442.48,232.1c0,7.62.41,8,7.81,8-7.4,0-7.81.43-7.81,8,0-7.61-.41-8-7.81-8C1442.07,240.14,1442.48,239.72,1442.48,232.1Z" transform="translate(387.04 127.23)"/><line class="cls-5" x1="1870.21" y1="276.07" x2="1857.62" y2="276.07"/><line class="cls-5" x1="1851.9" y1="276.07" x2="1839.3" y2="276.07"/><line class="cls-5" x1="1854.76" y1="262.02" x2="1854.76" y2="272.68"/><line class="cls-5" x1="1854.76" y1="279.47" x2="1854.76" y2="290.12"/><path class="cls-5" d="M1467.72,140.8c0,7.62.41,8,7.81,8-7.4,0-7.81.43-7.81,8,0-7.62-.41-8-7.81-8C1467.31,148.84,1467.72,148.42,1467.72,140.8Z" transform="translate(387.04 127.23)"/><ellipse class="cls-5" cx="1732.56" cy="116.78" rx="48.4" ry="44"/><line class="cls-5" x1="1732.56" y1="61.34" x2="1732.56" y2="5.14"/><line class="cls-5" x1="1732.56" y1="228.42" x2="1732.56" y2="172.21"/><line class="cls-5" x1="1671.58" y1="116.78" x2="1609.76" y2="116.78"/><line class="cls-5" x1="1855.36" y1="116.78" x2="1793.54" y2="116.78"/><line class="cls-5" x1="1689.44" y1="77.58" x2="1658.57" y2="49.51"/><line class="cls-5" x1="1806.55" y1="184.04" x2="1775.68" y2="155.98"/><line class="cls-5" x1="1689.44" y1="155.98" x2="1658.57" y2="184.04"/><line class="cls-5" x1="1806.55" y1="49.51" x2="1775.68" y2="77.58"/><line class="cls-5" x1="1709.8" y1="65.35" x2="1693.5" y2="28.53"/><line class="cls-5" x1="1771.63" y1="205.03" x2="1755.33" y2="168.21"/><line class="cls-5" x1="1675.99" y1="137.47" x2="1635.49" y2="152.29"/><line class="cls-5" x1="1829.64" y1="81.27" x2="1789.13" y2="96.08"/><line class="cls-5" x1="1676.46" y1="95.05" x2="1636.3" y2="79.49"/><line class="cls-5" x1="1828.83" y1="154.07" x2="1788.66" y2="138.51"/><line class="cls-5" x1="1708.66" y1="167.78" x2="1691.54" y2="204.29"/><line class="cls-5" x1="1773.58" y1="29.27" x2="1756.47" y2="65.78"/><line class="cls-5" x1="1682.77" y1="84.77" x2="1664.11" y2="72.78"/><line class="cls-5" x1="1801.02" y1="160.78" x2="1782.35" y2="148.78"/><line class="cls-5" x1="1697.36" y1="162.04" x2="1684.16" y2="179.01"/><line class="cls-5" x1="1780.97" y1="54.55" x2="1767.77" y2="71.52"/><line class="cls-5" x1="1672.85" y1="105.52" x2="1650.47" y2="101.3"/><line class="cls-5" x1="1814.65" y1="132.26" x2="1792.27" y2="128.04"/><line class="cls-5" x1="1720.18" y1="171.06" x2="1715.54" y2="191.41"/><line class="cls-5" x1="1749.59" y1="42.15" x2="1744.95" y2="62.5"/><line class="cls-5" x1="1672.46" y1="126.15" x2="1649.93" y2="129.67"/><line class="cls-5" x1="1815.19" y1="103.89" x2="1792.66" y2="107.4"/><line class="cls-5" x1="1742.87" y1="171.42" x2="1746.74" y2="191.9"/><line class="cls-5" x1="1718.39" y1="41.66" x2="1722.25" y2="62.14"/><line class="cls-5" x1="1699.22" y1="70.36" x2="1686.72" y2="52.96"/><line class="cls-5" x1="1778.41" y1="180.59" x2="1765.91" y2="163.19"/><line class="cls-5" x1="1681.51" y1="147.09" x2="1662.37" y2="158.45"/><line class="cls-5" x1="1802.76" y1="75.1" x2="1783.62" y2="86.47"/><path class="cls-5" d="M1314.38-10.45c0-20.89,18.63-37.83,41.61-37.83a44.32,44.32,0,0,1,24,6.92,50.75,50.75,0,0,0-34.44-13.09c-26.74,0-48.41,19.7-48.41,44s21.67,44,48.41,44A50.75,50.75,0,0,0,1380,20.46a44.32,44.32,0,0,1-24,6.92C1333,27.38,1314.38,10.44,1314.38-10.45Z" transform="translate(387.04 127.23)"/><path class="cls-5" d="M1439.76,690a13,13,0,0,0,1.57.45,6.93,6.93,0,0,1,5.35,5.26,11.18,11.18,0,0,0,.6,2h0a10.44,10.44,0,0,0,.6-2,6.94,6.94,0,0,1,5.35-5.26,12,12,0,0,0,1.57-.45l-1.21-.24a7,7,0,0,1-5.68-5.32,11.11,11.11,0,0,0-.63-2.18h0a11.11,11.11,0,0,0-.63,2.18,7,7,0,0,1-5.65,5.31Z" transform="translate(387.04 127.23)"/><path class="cls-5" d="M1496.14,634.85a15.06,15.06,0,0,0,1.57.45,6.93,6.93,0,0,1,5.35,5.26,10.44,10.44,0,0,0,.6,2h0a10.44,10.44,0,0,0,.6-2,6.93,6.93,0,0,1,5.35-5.26,14.39,14.39,0,0,0,1.57-.45l-1.21-.24a7,7,0,0,1-5.68-5.32,11.43,11.43,0,0,0-.63-2.19h0a11.22,11.22,0,0,0-.63,2.19,7,7,0,0,1-5.66,5.31Z" transform="translate(387.04 127.23)"/><path class="cls-5" d="M1201,601.4a16.17,16.17,0,0,0,1.57.45,7,7,0,0,1,5.35,5.26,10.9,10.9,0,0,0,.59,2h0a10.17,10.17,0,0,0,.6-2,7,7,0,0,1,5.35-5.26,16.17,16.17,0,0,0,1.57-.45l-1.21-.24a7,7,0,0,1-5.68-5.32,10.57,10.57,0,0,0-.63-2.19h0a11.34,11.34,0,0,0-.62,2.18,7,7,0,0,1-5.66,5.32C1201.49,601.29,1201,601.4,1201,601.4Z" transform="translate(387.04 127.23)"/><path class="cls-5" d="M1469.36,953.6a12,12,0,0,0,1.57.45,6.93,6.93,0,0,1,5.35,5.26,10.44,10.44,0,0,0,.6,2h0a10.46,10.46,0,0,0,.59-2,6.94,6.94,0,0,1,5.36-5.26,13,13,0,0,0,1.57-.45l-1.21-.24a7,7,0,0,1-5.68-5.32,11.84,11.84,0,0,0-.63-2.18h0a10.91,10.91,0,0,0-.63,2.18,7,7,0,0,1-5.66,5.31Z" transform="translate(387.04 127.23)"/><path class="cls-5" d="M990.12,959.2a13.77,13.77,0,0,0,1.57.45,6.93,6.93,0,0,1,5.35,5.26,10.44,10.44,0,0,0,.6,2h0a11.18,11.18,0,0,0,.6-2,6.92,6.92,0,0,1,5.35-5.26,15.06,15.06,0,0,0,1.57-.45L1004,959a7,7,0,0,1-5.68-5.32,11.11,11.11,0,0,0-.63-2.18h0a10.91,10.91,0,0,0-.63,2.18,7,7,0,0,1-5.66,5.31Z" transform="translate(387.04 127.23)"/><path class="cls-5" d="M1184.56,953.48a27.25,27.25,0,0,0,3,.85,13.11,13.11,0,0,1,10.11,9.94,19.46,19.46,0,0,0,1.13,3.84h0a20.92,20.92,0,0,0,1.13-3.84,13.11,13.11,0,0,1,10.11-9.94,27.91,27.91,0,0,0,3-.85l-2.29-.46c-5.48-1.07-9.74-5-10.73-10a21.68,21.68,0,0,0-1.19-4.13h0a21.07,21.07,0,0,0-1.19,4.12,13.19,13.19,0,0,1-10.69,10Z" transform="translate(387.04 127.23)"/><path class="cls-5" d="M1123,791.13a23.89,23.89,0,0,0,3,.85,13.11,13.11,0,0,1,10.11,9.94,20.8,20.8,0,0,0,1.13,3.85h0a19.37,19.37,0,0,0,1.13-3.85,13.11,13.11,0,0,1,10.11-9.94,23.4,23.4,0,0,0,3-.85l-2.28-.46c-5.49-1.06-9.75-5-10.74-10a20.61,20.61,0,0,0-1.19-4.14h0a21,21,0,0,0-1.18,4.13c-1,5-5.23,9-10.7,10C1123.9,790.93,1123,791.13,1123,791.13Z" transform="translate(387.04 127.23)"/><path class="cls-5" d="M1369,493.15a27.72,27.72,0,0,0,3,.85,13.13,13.13,0,0,1,10.12,9.94,19.46,19.46,0,0,0,1.13,3.84h0a20.92,20.92,0,0,0,1.13-3.84,13.11,13.11,0,0,1,10.11-9.94,28.6,28.6,0,0,0,3-.85l-2.29-.46c-5.48-1.06-9.75-5-10.74-10.05a21,21,0,0,0-1.18-4.13h0a20.32,20.32,0,0,0-1.19,4.13c-1,5-5.23,9-10.69,10C1369.9,493,1369,493.15,1369,493.15Z" transform="translate(387.04 127.23)"/><path class="cls-5" d="M1417.55,578.44a46.59,46.59,0,0,0,5.21,1.49,23,23,0,0,1,17.74,17.44,36.06,36.06,0,0,0,2,6.74h0a34.61,34.61,0,0,0,2-6.74,23,23,0,0,1,17.74-17.44,46.59,46.59,0,0,0,5.21-1.49s-1.62-.34-4-.81c-9.62-1.87-17.1-8.82-18.84-17.62a36.45,36.45,0,0,0-2.08-7.25h0a36.44,36.44,0,0,0-2.08,7.23c-1.73,8.78-9.17,15.73-18.76,17.61C1419.21,578.08,1417.55,578.44,1417.55,578.44Z" transform="translate(387.04 127.23)"/><line class="cls-5" x1="1760.67" y1="1080.71" x2="1748.07" y2="1080.71"/><line class="cls-5" x1="1742.35" y1="1080.71" x2="1729.76" y2="1080.71"/><line class="cls-5" x1="1745.21" y1="1066.66" x2="1745.21" y2="1077.31"/><line class="cls-5" x1="1745.21" y1="1084.1" x2="1745.21" y2="1094.76"/><path class="cls-5" d="M1358.18,945.44c0,7.61.41,8,7.81,8-7.4,0-7.81.42-7.81,8,0-7.62-.41-8-7.81-8C1357.77,953.48,1358.18,953.05,1358.18,945.44Z" transform="translate(387.04 127.23)"/><line class="cls-5" x1="1867.35" y1="904.31" x2="1854.76" y2="904.31"/><line class="cls-5" x1="1849.04" y1="904.31" x2="1836.44" y2="904.31"/><line class="cls-5" x1="1851.9" y1="890.26" x2="1851.9" y2="900.92"/><line class="cls-5" x1="1851.9" y1="907.7" x2="1851.9" y2="918.36"/><path class="cls-5" d="M1464.86,769c0,7.62.41,8,7.81,8-7.4,0-7.81.42-7.81,8,0-7.62-.41-8-7.81-8C1464.45,777.08,1464.86,776.66,1464.86,769Z" transform="translate(387.04 127.23)"/><line class="cls-5" x1="1490.3" y1="1051.42" x2="1477.7" y2="1051.42"/><line class="cls-5" x1="1471.98" y1="1051.42" x2="1459.39" y2="1051.42"/><line class="cls-5" x1="1474.84" y1="1037.37" x2="1474.84" y2="1048.03"/><line class="cls-5" x1="1474.84" y1="1054.81" x2="1474.84" y2="1065.47"/><path class="cls-5" d="M1087.8,916.15c0,7.61.42,8,7.81,8-7.39,0-7.81.42-7.81,8,0-7.62-.41-8-7.8-8C1087.39,924.19,1087.8,923.76,1087.8,916.15Z" transform="translate(387.04 127.23)"/><line class="cls-5" x1="1641.48" y1="830.49" x2="1615.63" y2="830.49"/><line class="cls-5" x1="1603.89" y1="830.49" x2="1578.04" y2="830.49"/><line class="cls-5" x1="1609.76" y1="801.65" x2="1609.76" y2="823.53"/><line class="cls-5" x1="1609.76" y1="837.45" x2="1609.76" y2="859.33"/><path class="cls-5" d="M1222.73,686.76c0,15.63.84,16.5,16,16.5-15.18,0-16,.87-16,16.51,0-15.64-.85-16.51-16-16.51C1221.88,703.26,1222.73,702.39,1222.73,686.76Z" transform="translate(387.04 127.23)"/><path class="cls-5" d="M1233.34,885.8c1.75,23.57,29.84,37.51,52.59,26.1h0c17.23-8.64,23.51-28.39,13.87-44-7.43-12-13.74-23.75-11.2-25.29,14.19-8.56,38-23.23,44.59-26.56l31.46-15.78a26.32,26.32,0,0,0,12.83-13.68l25.28-64,13.45-55.18s-3.32-6.78-12.21,3.47-12.64,29-12.64,29-7.86-15.58-10.43-17.19-24.07-15.64-29.57-15.53-2.75,12.94,4.58,18.91,15.83,12.55,15.83,12.55l8.51,23.2-10-9s2.42-3.87.85-6.46-4.88-4.54-9.91-3.22a16.7,16.7,0,0,0-3.27,1c-1.74-1.12-10.42-6.58-15.29-7.16-5.43-.65-24.35-5.62-27.11-4.48s-2.43,6,6.07,12.62,19.5,8.54,19.5,8.54l-4.43,3.19s-23.67-8.86-27.33-7-2.76,8.13,3.64,11.68,9.81,5.68,9.81,5.68-27.94,19.07-35.86,23-30.69,25-34.82,32.64-18.38,29.93-20.46,37.5S1231.28,858.11,1233.34,885.8Zm121.19-155.51,3.36-1.69s3.16,3.76,5.19,5.95-2.39,5.89-2.39,5.89-1.11-4.26-1.47-5S1354.53,730.29,1354.53,730.29Zm-32.61,24.9,18.54-14.07,4,5.31-1,6.64C1333.58,756.93,1321.92,755.19,1321.92,755.19Z" transform="translate(387.04 127.23)"/><path class="cls-5" d="M1322.86,727.24,1334,732.5l10.44,13.93-3,19.94s-58.81,21.67-72.61,48" transform="translate(387.04 127.23)"/><path class="cls-5" d="M1366.22,777.08s-4.64-37.8-7-41.68-17.61-16.75-22.48-18.49" transform="translate(387.04 127.23)"/><path class="cls-5" d="M1358.31,704.4l12,8.44,10,9,2.83,2.47a6.77,6.77,0,0,1,2.39,5.38l-1.18,26.77" transform="translate(387.04 127.23)"/><line class="cls-5" x1="1778.4" y1="827.11" x2="1786.42" y2="840.32"/><polyline class="cls-5" points="1728.2 840.95 1734.91 843.92 1744.93 855.83"/><line class="cls-5" x1="1731.94" y1="750.91" x2="1744.22" y2="762.08"/><line class="cls-5" x1="1673.69" y1="697.96" x2="1685.97" y2="709.12"/><line class="cls-5" x1="1685.97" y1="750.91" x2="1673.69" y2="762.08"/><line class="cls-5" x1="1744.22" y1="697.96" x2="1731.94" y2="709.13"/><path class="cls-5" d="M1369.47,602.79s-12.81-2.71-24.76-4.68a21.35,21.35,0,0,1-9.46-4,48.82,48.82,0,0,0,6.37-9.19h0a54.88,54.88,0,0,0-9.95,5.68,17.63,17.63,0,0,1-3.67-8.85c-1.08-9.71-2.94-20.66-6.08-27.9-3.15,7.25-5,18.22-6.09,27.94a17.57,17.57,0,0,1-4.1,9.39c-4.6-3-9.51-6.26-9.51-6.26,1.18,2.47,4.08,6.13,6.54,9.09a21.21,21.21,0,0,1-9.64,4.18c-11.84,2-24.76,4.64-24.76,4.64A114.63,114.63,0,0,0,1298,608a22.09,22.09,0,0,1,10.19,4,46.86,46.86,0,0,0-6,8.71,53.06,53.06,0,0,0,9.55-5.41,17.8,17.8,0,0,1,4.16,9.46c1.1,9.48,2.94,20,6,27,3-7,4.88-17.54,6-27a17.85,17.85,0,0,1,4.29-9.61,58.78,58.78,0,0,0,9.43,5.56s-3.38-4.2-6.57-8.28a22,22,0,0,1,10.78-4.41A114.48,114.48,0,0,0,1369.47,602.79Z" transform="translate(387.04 127.23)"/><path class="cls-5" d="M1179.07,864.55c-7.35-1.45-13-6.77-14.37-13.49a28.42,28.42,0,0,0-1.59-5.54h0a27.82,27.82,0,0,0-1.6,5.55c-1.33,6.74-7.06,12.07-14.42,13.5-1.83.35-3.08.61-3.08.61a35.74,35.74,0,0,0,4,1.15,17.62,17.62,0,0,1,13.59,13.35,26.26,26.26,0,0,0,1.52,5.17h0a27,27,0,0,0,1.51-5.17,17.63,17.63,0,0,1,13.59-13.35,35.74,35.74,0,0,0,4-1.15S1180.93,864.91,1179.07,864.55Z" transform="translate(387.04 127.23)"/><ellipse class="cls-5" cx="1807.63" cy="998.14" rx="29.63" ry="30.52"/></svg>